<?xml version="1.0" encoding="UTF-8"?>
<svg xmlns="http://www.w3.org/2000/svg" xmlns:xlink="http://www.w3.org/1999/xlink" viewBox="0 0 945 168">
  <defs>
    <style>
      .cls-1, .cls-2 {
        fill: #101b4e;
      }

      .cls-3 {
        fill: #1c5dff;
      }

      .cls-4 {
        stroke: #101b4e;
        stroke-width: 2px;
      }

      .cls-4, .cls-5 {
        fill: #fff;
      }

      .cls-4, .cls-6, .cls-7, .cls-8 {
        stroke-miterlimit: 10;
      }

      .cls-5 {
        filter: url(#drop-shadow-1);
        mix-blend-mode: multiply;
      }

      .cls-6 {
        stroke: #ed1c24;
      }

      .cls-6, .cls-7, .cls-8 {
        fill: none;
        stroke-width: 4px;
      }

      .cls-7 {
        stroke: #1c5dff;
      }

      .cls-8 {
        stroke: #a4bec9;
      }

      .cls-2 {
        font-family: PublicSans-SemiBold, 'Public Sans';
        font-size: 16.61px;
        font-weight: 600;
      }

      .cls-9 {
        isolation: isolate;
      }
    </style>
    <filter id="drop-shadow-1" filterUnits="userSpaceOnUse">
      <feOffset dx="0" dy="0"/>
      <feGaussianBlur result="blur" stdDeviation="5"/>
      <feFlood flood-color="#a4bec9" flood-opacity="1"/>
      <feComposite in2="blur" operator="in"/>
      <feComposite in="SourceGraphic"/>
    </filter>
  </defs>
  <g class="cls-9">
    <g id="Layer_1" data-name="Layer 1">
      <g>
        <path class="cls-5" d="M56.85,15.76H888.17c22.7,0,41.12,18.43,41.12,41.12v95.94H15.73V56.88c0-22.7,18.43-41.12,41.12-41.12Z"/>
        <g>
          <g>
            <path class="cls-3" d="M227.6,95.71c.7,1.3,1.38,2.59,2.1,3.94-4.04-.97-8.03-1.93-12.08-2.9,1.93-2.96,3.83-5.87,5.78-8.86,.61,1.13,1.18,2.2,1.8,3.33,7.04-4.44,11.34-10.68,12-18.98,.81-10.05-3.28-17.88-11.79-23.28-4.53-2.87-9.58-3.9-14.92-3.39-5.33,.51-9.97,2.62-13.99,6.17-1.13-1.27-2.26-2.52-3.43-3.83,7.61-6.47,16.28-8.95,26.06-6.89,11.68,2.46,20.14,11.64,22.56,22.28,1.44,6.35,.9,12.54-1.7,18.51-2.6,5.97-6.78,10.57-12.39,13.9Z"/>
            <path class="cls-3" d="M192.88,55.82c-1.95,2.79-3.27,5.8-3.98,9.12-1.66-.45-3.27-.88-4.94-1.33,.87-3.9,2.45-7.46,4.75-10.74,1.4,.99,2.77,1.96,4.17,2.95Z"/>
            <path class="cls-3" d="M190.1,79.23c.62,1.16,1.16,2.31,1.82,3.39,.65,1.08,1.41,2.1,2.15,3.19-1.23,1.07-2.49,2.18-3.79,3.31-.34-.42-.67-.82-.98-1.23-1.26-1.68-2.34-3.46-3.24-5.36-.13-.28-.12-.42,.16-.6,1.32-.89,2.62-1.81,3.89-2.7Z"/>
            <path class="cls-3" d="M184.4,78.06c-.86-3-1.19-6-1.1-9.11,1.71,.06,3.38,.12,5.1,.19,0,.6-.01,1.16,0,1.73,.04,1.55,.25,3.08,.61,4.59,.06,.26,.02,.37-.23,.49-1.45,.68-2.9,1.39-4.38,2.11Z"/>
            <path class="cls-3" d="M195.11,93.69c1-1.4,1.98-2.76,2.98-4.15,1.86,1.4,3.86,2.52,6.04,3.37-.64,1.59-1.27,3.15-1.91,4.74-2.56-1-4.9-2.3-7.11-3.96Z"/>
            <path class="cls-3" d="M207.7,99.2c.32-1.7,.63-3.35,.94-5.02,.61,.07,1.21,.17,1.8,.21,1.03,.06,2.05,.1,3.08,.13,.25,0,.35,.06,.43,.31,.48,1.55,.99,3.1,1.5,4.69-2.61,.23-5.16,.11-7.76-.32Z"/>
          </g>
          <text class="cls-2" transform="translate(165.19 124.42)"><tspan x="0" y="0">En progreso</tspan></text>
        </g>
        <g>
          <text class="cls-2" transform="translate(298.06 124.42)"><tspan x="0" y="0">Completada</tspan></text>
          <circle class="cls-7" cx="346.04" cy="71.2" r="30.89"/>
        </g>
        <text class="cls-2" transform="translate(430.92 124.42)"><tspan x="0" y="0">En rechazo</tspan></text>
        <text class="cls-2" transform="translate(556.25 124.42)"><tspan x="0" y="0">Suspendida</tspan></text>
        <text class="cls-2" transform="translate(687.03 124.42)"><tspan x="0" y="0">Cancelada</tspan></text>
        <g>
          <text class="cls-2" transform="translate(41.23 124.42)"><tspan x="0" y="0">No iniciada</tspan></text>
          <circle class="cls-8" cx="85.01" cy="71.2" r="30.89"/>
        </g>
        <g>
          <g>
            <path class="cls-4" d="M505.14,82.23c-5.71-.01-10.4,4.63-10.42,10.33-.02,5.72,4.67,10.42,10.39,10.42,5.71,0,10.38-4.67,10.39-10.36,0-5.7-4.66-10.37-10.36-10.38Z"/>
            <path class="cls-1" d="M502.68,92.66c-1.14-1.13-2.22-2.21-3.25-3.23,.84-.84,1.63-1.63,2.41-2.42,1,1.01,2.09,2.1,3.21,3.23,1.18-1.18,2.26-2.26,3.29-3.29,.81,.81,1.61,1.6,2.41,2.4-1.02,1.02-2.12,2.1-3.26,3.24,1.15,1.15,2.24,2.22,3.28,3.26-.8,.8-1.59,1.59-2.41,2.4-1.01-1.03-2.07-2.13-3.17-3.26-1.16,1.16-2.25,2.25-3.29,3.3-.85-.85-1.64-1.64-2.44-2.44,1.05-1.04,2.14-2.12,3.23-3.2Z"/>
          </g>
          <circle class="cls-6" cx="464.73" cy="71.2" r="30.89"/>
        </g>
        <g>
          <g>
            <rect class="cls-1" x="628.71" y="84.29" width="4.61" height="17.92"/>
            <rect class="cls-1" x="635.68" y="84.29" width="4.61" height="17.92"/>
          </g>
          <circle class="cls-6" cx="596.12" cy="71.2" r="30.89"/>
        </g>
        <g>
          <circle class="cls-6" cx="718.14" cy="71.2" r="30.89"/>
          <polygon class="cls-1" points="770.02 87.34 765.92 83.24 760.01 89.15 754.1 83.24 750 87.34 755.91 93.25 750 99.16 754.1 103.26 760.01 97.35 765.92 103.26 770.02 99.16 764.11 93.25 770.02 87.34"/>
        </g>
        <g>
          <text class="cls-2" transform="translate(807.82 124.42)"><tspan x="0" y="0">Cons/Excep</tspan></text>
          <g>
            <circle class="cls-6" cx="850.46" cy="71.2" r="30.89"/>
            <path class="cls-1" d="M887.57,73.7c.8,0,1.49,.29,2.07,.87,.58,.58,.87,1.27,.87,2.07s-.29,1.49-.87,2.07-1.27,.87-2.07,.87-1.49-.29-2.07-.87c-.58-.58-.87-1.27-.87-2.07s.29-1.49,.87-2.07c.58-.58,1.27-.87,2.07-.87Zm2.78,28.51h-5.51v-5.08l1.18-14.22h3.15l1.18,14.22v5.08Z"/>
          </g>
        </g>
      </g>
    </g>
  </g>
</svg>