<?xml version="1.0" encoding="UTF-8"?>
<svg id="Layer_1" data-name="Layer 1" xmlns="http://www.w3.org/2000/svg" xmlns:xlink="http://www.w3.org/1999/xlink" viewBox="0 0 176.91 139.79">
  <defs>
    <style>
      .cls-1 {
        fill: url(#linear-gradient);
      }

      .cls-2 {
        fill: #ed1c24;
      }

      .cls-3 {
        fill: #101b4e;
      }
    </style>
    <linearGradient id="linear-gradient" x1="26.63" y1="113.07" x2="112.98" y2="26.72" gradientUnits="userSpaceOnUse">
      <stop offset="0" stop-color="#dbdfe2"/>
      <stop offset="1" stop-color="#fff"/>
    </linearGradient>
  </defs>
  <g>
    <g>
      <g>
        <path class="cls-3" d="M153.3,137.5c-6.27,0-12.18-2.46-16.63-6.94-4.45-4.47-6.89-10.37-6.86-16.62,.05-12.89,10.59-23.35,23.51-23.35h.05c12.93,.02,23.45,10.56,23.44,23.48-.01,12.92-10.55,23.43-23.49,23.43h0Zm.01-42.78c-10.65,0-19.34,8.63-19.38,19.25-.02,5.14,1.99,10.01,5.66,13.69,3.68,3.69,8.55,5.72,13.71,5.72h0c10.67,0,19.36-8.66,19.37-19.31,.01-10.65-8.66-19.33-19.32-19.35h-.04Z"/>
        <path class="cls-3" d="M148.29,114.16c-2.35-2.33-4.58-4.55-6.7-6.66,1.73-1.74,3.36-3.37,4.98-5,2.07,2.08,4.3,4.34,6.61,6.67,2.43-2.43,4.65-4.66,6.78-6.79,1.68,1.67,3.32,3.3,4.98,4.96-2.11,2.1-4.37,4.34-6.73,6.68,2.38,2.37,4.61,4.59,6.76,6.72-1.64,1.64-3.28,3.27-4.97,4.96-2.08-2.13-4.28-4.39-6.55-6.72-2.39,2.4-4.63,4.65-6.79,6.81-1.75-1.75-3.39-3.38-5.04-5.03,2.17-2.15,4.41-4.37,6.67-6.61Z"/>
      </g>
      <g>
        <circle class="cls-2" cx="70" cy="69.9" r="63.71"/>
        <path class="cls-2" d="M70,139.79C31.46,139.79,.11,108.44,.11,69.9S31.46,0,70,0s69.9,31.35,69.9,69.9-31.36,69.9-69.9,69.9Zm0-127.42c-31.72,0-57.52,25.8-57.52,57.52s25.8,57.52,57.52,57.52,57.52-25.8,57.52-57.52S101.72,12.38,70,12.38Z"/>
      </g>
    </g>
    <circle class="cls-1" cx="69.8" cy="69.9" r="61.05"/>
  </g>
  <g>
    <path class="cls-3" d="M56.57,81.22c0,1.55,1.26,2.81,2.81,2.81h17.23c.03-.28,.08-.56,.14-.87l1.15-4.75h-18.52c-1.55,0-2.81,1.26-2.81,2.81Z"/>
    <path class="cls-3" d="M93.72,85.4v6.86H48.33V34.17h45.39v22.54l4.17-4.91c.42-.51,.91-.95,1.46-1.32V30.74c-.01-1.21-.99-2.18-2.2-2.17H44.91c-1.21,0-2.19,.98-2.19,2.19v11.12h-11.14c-1.21,0-2.2,.98-2.2,2.2h0V109.03c0,1.21,.99,2.19,2.2,2.19h52.24c1.21,0,2.19-.98,2.19-2.19h0v-11.14h11.14c1.21,0,2.19-.98,2.19-2.19h0v-16.55l-3.9,4.61c-.51,.61-1.09,1.16-1.72,1.65Zm-13.34,20.19H35V47.51h7.71v48.18c0,1.21,.98,2.19,2.19,2.2,0,0,0,0,0,0h35.48v7.71Z"/>
    <path class="cls-3" d="M81.13,84.23c-.18,.74,.27,1.48,1,1.66,.29,.07,.6,.05,.87-.07l5.47-2.35c1.04-.47,1.99-1.12,2.8-1.93l-7.3-6.17c-.66,.93-1.15,1.98-1.44,3.08l-1.41,5.78Z"/>
    <path class="cls-3" d="M108.43,56.66l-2.74-2.31c-1.31-1.1-3.26-.94-4.37,.37l-14.53,17.15,7.47,6.32,14.53-17.15c1.11-1.31,.94-3.27-.37-4.38,0,0,0,0,0,0Z"/>
    <path class="cls-3" d="M71.02,41.72c-8.05,.01-14.56,6.54-14.55,14.59,.01,8.05,6.54,14.56,14.59,14.55,8.03-.01,14.54-6.52,14.55-14.55,0-8.06-6.53-14.59-14.59-14.59h0Zm6.83,12.92l-7.2,7.21c-.89,.89-2.33,.89-3.23,0l-3.58-3.58c-.86-.92-.81-2.37,.11-3.23,.88-.82,2.24-.82,3.11,0l1.96,1.97,5.58-5.59c.92-.86,2.37-.81,3.23,.11,.82,.88,.82,2.24,0,3.11h0Z"/>
  </g>
</svg>