<?xml version="1.0" encoding="UTF-8"?>
<svg id="Layer_1" data-name="Layer 1" xmlns="http://www.w3.org/2000/svg" xmlns:xlink="http://www.w3.org/1999/xlink" viewBox="0 0 176.91 139.79">
  <defs>
    <style>
      .cls-1 {
        fill: url(#linear-gradient);
      }

      .cls-2 {
        fill: #ed1c24;
      }

      .cls-3 {
        fill: #101b4e;
      }
    </style>
    <linearGradient id="linear-gradient" x1="26.63" y1="113.07" x2="112.98" y2="26.72" gradientUnits="userSpaceOnUse">
      <stop offset="0" stop-color="#dbdfe2"/>
      <stop offset="1" stop-color="#fff"/>
    </linearGradient>
  </defs>
  <g>
    <g>
      <g>
        <path class="cls-3" d="M153.3,137.5c-6.27,0-12.18-2.46-16.63-6.94-4.45-4.47-6.89-10.37-6.86-16.62,.05-12.89,10.59-23.35,23.51-23.35h.05c12.93,.02,23.45,10.56,23.44,23.48-.01,12.92-10.55,23.43-23.49,23.43h0Zm.01-42.78c-10.65,0-19.34,8.63-19.38,19.25-.02,5.14,1.99,10.01,5.66,13.69,3.68,3.69,8.55,5.72,13.71,5.72h0c10.67,0,19.36-8.66,19.37-19.31,.01-10.65-8.66-19.33-19.32-19.35h-.04Z"/>
        <path class="cls-3" d="M148.29,114.16c-2.35-2.33-4.58-4.55-6.7-6.66,1.73-1.74,3.36-3.37,4.98-5,2.07,2.08,4.3,4.34,6.61,6.67,2.43-2.43,4.65-4.66,6.78-6.79,1.68,1.67,3.32,3.3,4.98,4.96-2.11,2.1-4.37,4.34-6.73,6.68,2.38,2.37,4.61,4.59,6.76,6.72-1.64,1.64-3.28,3.27-4.97,4.96-2.08-2.13-4.28-4.39-6.55-6.72-2.39,2.4-4.63,4.65-6.79,6.81-1.75-1.75-3.39-3.38-5.04-5.03,2.17-2.15,4.41-4.37,6.67-6.61Z"/>
      </g>
      <g>
        <circle class="cls-2" cx="70" cy="69.9" r="63.71"/>
        <path class="cls-2" d="M70,139.79C31.46,139.79,.11,108.44,.11,69.9S31.46,0,70,0s69.9,31.35,69.9,69.9-31.36,69.9-69.9,69.9Zm0-127.42c-31.72,0-57.52,25.8-57.52,57.52s25.8,57.52,57.52,57.52,57.52-25.8,57.52-57.52S101.72,12.38,70,12.38Z"/>
      </g>
    </g>
    <circle class="cls-1" cx="69.8" cy="69.9" r="61.05"/>
  </g>
  <g>
    <g>
      <rect class="cls-3" x="70.88" y="60.6" width="7.1" height="12.62" rx=".95" ry=".95"/>
      <rect class="cls-3" x="81.29" y="54.6" width="7.1" height="18.62" rx=".95" ry=".95"/>
      <rect class="cls-3" x="91.71" y="56.89" width="7.1" height="16.33" rx=".95" ry=".95"/>
      <rect class="cls-3" x="102.13" y="49.7" width="7.1" height="23.52" rx=".95" ry=".95"/>
    </g>
    <path class="cls-3" d="M114.44,82.25h-44.41c-.68,0-1.24-.55-1.24-1.24s.56-1.24,1.24-1.24h44.41c.43,0,.79-.32,.79-.7V40.3c0-.39-.35-.7-.79-.7H59.5c-.43,0-.79,.31-.79,.7v11.13c0,.68-.56,1.24-1.24,1.24s-1.24-.55-1.24-1.24v-11.13c0-1.75,1.47-3.18,3.27-3.18h54.95c1.8,0,3.27,1.43,3.27,3.18v38.76c0,1.75-1.47,3.18-3.27,3.18Z"/>
    <g>
      <path class="cls-3" d="M43.95,92.06c-11.44,0-20.76-9.31-20.76-20.76s9.31-20.76,20.76-20.76,20.76,9.31,20.76,20.76-9.31,20.76-20.76,20.76Zm0-39.17c-10.15,0-18.41,8.26-18.41,18.41s8.26,18.41,18.41,18.41,18.41-8.26,18.41-18.41-8.26-18.41-18.41-18.41Z"/>
      <rect class="cls-3" x="59.59" y="83.68" width="2.07" height="9.3" transform="translate(-44.05 65.52) rotate(-43.24)"/>
      <path class="cls-3" d="M64.62,89.6l-1.38,.52c-.44,.17-.8,.5-.99,.93l-.6,1.35c-.29,.65-.16,1.42,.33,1.94l9.19,9.78c.67,.71,1.79,.75,2.5,.08l1.99-1.87c.71-.67,.75-1.79,.08-2.5l-9.19-9.78c-.49-.52-1.25-.7-1.92-.44Z"/>
      <path class="cls-3" d="M43.95,59.18c-6.77,0-12.28,5.51-12.28,12.28s5.51,12.28,12.28,12.28,12.28-5.51,12.28-12.28-5.51-12.28-12.28-12.28Z"/>
    </g>
  </g>
</svg>