<?xml version="1.0" encoding="UTF-8"?>
<svg id="Layer_1" data-name="Layer 1" xmlns="http://www.w3.org/2000/svg" xmlns:xlink="http://www.w3.org/1999/xlink" viewBox="0 0 176.91 139.79">
  <defs>
    <style>
      .cls-1 {
        fill: url(#linear-gradient);
      }

      .cls-2 {
        fill: #ed1c24;
      }

      .cls-3 {
        fill: #101b4e;
      }
    </style>
    <linearGradient id="linear-gradient" x1="26.63" y1="113.07" x2="112.98" y2="26.72" gradientUnits="userSpaceOnUse">
      <stop offset="0" stop-color="#dbdfe2"/>
      <stop offset="1" stop-color="#fff"/>
    </linearGradient>
  </defs>
  <g>
    <g>
      <g>
        <circle class="cls-2" cx="69.9" cy="69.9" r="63.71"/>
        <path class="cls-2" d="M69.9,139.79C31.35,139.79,0,108.44,0,69.9S31.35,0,69.9,0s69.9,31.35,69.9,69.9-31.36,69.9-69.9,69.9Zm0-127.42c-31.72,0-57.52,25.8-57.52,57.52s25.8,57.52,57.52,57.52,57.52-25.8,57.52-57.52S101.61,12.38,69.9,12.38Z"/>
      </g>
      <polygon class="cls-3" points="176.91 103.2 168.45 94.75 156.26 106.93 144.08 94.75 135.62 103.2 147.81 115.39 135.62 127.58 144.08 136.03 156.26 123.84 168.45 136.03 176.91 127.58 164.72 115.39 176.91 103.2"/>
    </g>
    <circle class="cls-1" cx="69.8" cy="69.9" r="61.05"/>
  </g>
  <g>
    <path class="cls-3" d="M23.35,72.42c0-11.82,0-23.64,.01-35.46,0-.8,.04-1.65,.31-2.38,.58-1.57,1.93-2.24,3.51-2.27,3.81-.06,7.62-.01,11.43-.03,.72,0,1.03,.33,1.03,1.02,0,1.48-.02,2.96,0,4.45,.02,.82-.33,1.11-1.15,1.1-2.61-.03-5.22,.02-7.83-.03-.98-.02-1.35,.26-1.35,1.31,.03,21.49,.02,42.97,.02,64.46,0,1.29,.07,1.35,1.4,1.35,17.5,0,35.01,0,52.51,.02,1.03,0,1.31-.32,1.31-1.33-.03-21.45-.03-42.9,0-64.35,0-1.05-.26-1.42-1.36-1.38-2.36,.08-4.73,0-7.09,.04-.87,.01-1.2-.28-1.16-1.16,.05-1.44,.03-2.89,0-4.34-.01-.8,.3-1.16,1.12-1.16,3.56,.02,7.13-.03,10.69,.02,2.22,.03,4.22,1.98,4.53,4.3,.11,.84,.15,1.69,.15,2.53,0,22.62,0,45.23,0,67.85,0,3.73-1.79,5.53-5.49,5.53-19.37,0-38.75,0-58.12,0-1.82,0-3.4-.47-4.16-2.27-.3-.71-.31-1.58-.31-2.38-.02-11.82-.01-23.64-.01-35.46Z"/>
    <path class="cls-3" d="M57.59,41.38c-3.81,0-7.62,0-11.43,0-2.2,0-3.31-1.13-3.32-3.31,0-2.5-.01-5.01,0-7.51,.01-2.13,1.14-3.28,3.25-3.28,7.69,0,15.38,0,23.07,0,2.02,0,3.21,1.2,3.22,3.23,.02,2.57,.02,5.15,0,7.72-.01,1.98-1.16,3.15-3.15,3.15-3.88,.02-7.76,0-11.64,0Z"/>
    <path class="cls-3" d="M98.37,57.92c.33-4.01,.67-8.01,.96-12.02,.1-1.35,.42-2.48,1.81-3.07,.27-.11,.49-.57,.56-.9,.13-.65,.12-1.33,.2-2,.21-1.57,1.3-2.6,2.79-2.66,1.35-.05,2.56,1,2.84,2.5,.07,.38,.15,.8,.04,1.15-.51,1.68,.34,2.82,1.48,3.81,.33,.29,.91,.29,1.38,.4,1.02,.25,2.14,.3,3.03,.78,1.51,.82,2.19,2.29,2.06,4-.41,5.49-.87,10.97-1.32,16.45-.07,.78-.38,1.56-1.28,1.54-.49-.01-1.11-.4-1.41-.81-.24-.33-.16-.95-.12-1.44,.33-4.96,.68-9.92,1.01-14.88,.14-2.07-1.07-3.04-3.09-2.46-.22,.06-.45,.42-.5,.68-.12,.62-.13,1.26-.18,1.89-.55,6.75-1.09,13.5-1.64,20.25-.11,1.37-.18,1.42-1.55,1.32-2.25-.18-4.5-.36-6.75-.55-1.4-.12-1.45-.18-1.34-1.64,.33-4.11,.67-8.23,1-12.34Z"/>
    <path class="cls-3" d="M97.29,85.79c.26-3.2,.52-6.39,.78-9.59,.12-1.44,.12-1.44,1.6-1.32,1.62,.13,3.23,.29,4.85,.38,.93,.05,1.3,.41,1.22,1.39-.52,6.53-1.02,13.07-1.5,19.6-.06,.88-.4,1.13-1.26,1.04-1.82-.2-3.65-.35-5.48-.44-.91-.04-1.11-.43-1.03-1.26,.3-3.26,.54-6.53,.81-9.8Z"/>
    <path class="cls-3" d="M57.25,47.55c6.17,0,12.34,0,18.51,0,.46,0,.97-.09,1.36,.08,.43,.19,.97,.6,1.04,.99,.08,.45-.2,1.09-.54,1.42-.3,.29-.9,.37-1.37,.37-12.7,.02-25.39,.02-38.09,0-.5,0-1.13-.11-1.47-.42-.35-.32-.61-1-.52-1.44,.08-.38,.66-.74,1.1-.93,.36-.16,.83-.06,1.26-.06,6.24,0,12.48,0,18.73,0Z"/>
    <path class="cls-3" d="M57.32,71.29c6.07,0,12.14,0,18.21,0,.32,0,.64,0,.95,0,1.34,.02,1.93,.47,1.91,1.44-.02,.93-.69,1.44-1.96,1.44-12.74,0-25.47,0-38.21-.01-.44,0-.99-.07-1.29-.33-.34-.31-.7-.91-.62-1.3,.09-.44,.59-.9,1.03-1.13,.36-.2,.9-.1,1.35-.1,6.21,0,12.42,0,18.63,0Z"/>
    <path class="cls-3" d="M57.36,95.02c6.25,0,12.49,0,18.74,0,1.67,0,2.26,.36,2.29,1.39,.03,1.04-.67,1.48-2.33,1.49-12.49,0-24.99,0-37.48-.01-.55,0-1.21-.02-1.61-.31-.38-.27-.72-.95-.65-1.38,.07-.42,.62-.86,1.06-1.08,.37-.19,.9-.09,1.36-.09,6.21,0,12.42,0,18.63,0Z"/>
    <path class="cls-3" d="M57.12,62.23c-6.24,0-12.49,0-18.73,0-1.6,0-2.36-.49-2.32-1.48,.03-.95,.78-1.4,2.32-1.4,12.49,0,24.97,0,37.46,0,1.58,0,2.36,.51,2.32,1.51-.04,.97-.7,1.37-2.31,1.37-6.24,0-12.49,0-18.73,0Z"/>
    <path class="cls-3" d="M57.14,85.97c-6.21,0-12.41,0-18.62,0-.39,0-.87,.12-1.14-.06-.5-.33-1.09-.78-1.26-1.31-.24-.74,.38-1.24,1.07-1.45,.36-.11,.77-.07,1.16-.07,12.52,0,25.04,0,37.56,.02,.59,0,1.27,.17,1.74,.5,.31,.21,.55,.93,.42,1.26-.17,.44-.7,.81-1.16,1.05-.31,.16-.76,.05-1.15,.05-6.21,0-12.41,0-18.62,0Z"/>
    <path class="cls-3" d="M103.27,99.9c-.82,1.72-1.58,3.29-2.34,4.86-.32,.66-.63,1.34-1,1.97-.46,.77-1.45,.74-1.74-.09-.8-2.32-1.51-4.68-2.25-7.02-.02-.06,.04-.13,.09-.31,2.33,.19,4.69,.38,7.24,.59Z"/>
  </g>
</svg>