<?xml version="1.0" encoding="UTF-8"?>
<svg id="Layer_1" data-name="Layer 1" xmlns="http://www.w3.org/2000/svg" xmlns:xlink="http://www.w3.org/1999/xlink" viewBox="0 0 176.91 139.79">
  <defs>
    <style>
      .cls-1 {
        fill: url(#linear-gradient);
      }

      .cls-2 {
        fill: #ed1c24;
      }

      .cls-3 {
        fill: #101b4e;
      }
    </style>
    <linearGradient id="linear-gradient" x1="34.63" y1="113.07" x2="120.98" y2="26.72" gradientUnits="userSpaceOnUse">
      <stop offset="0" stop-color="#dbdfe2"/>
      <stop offset="1" stop-color="#fff"/>
    </linearGradient>
  </defs>
  <g>
    <g>
      <g>
        <rect class="cls-3" x="145.06" y="96.91" width="9.52" height="36.96"/>
        <rect class="cls-3" x="159.45" y="96.91" width="9.52" height="36.96"/>
      </g>
      <g>
        <circle class="cls-2" cx="77.84" cy="69.9" r="63.71"/>
        <path class="cls-2" d="M77.84,139.79c-38.54,0-69.9-31.36-69.9-69.9S39.3,0,77.84,0s69.9,31.35,69.9,69.9-31.36,69.9-69.9,69.9Zm0-127.42c-31.72,0-57.52,25.8-57.52,57.52s25.8,57.52,57.52,57.52,57.52-25.8,57.52-57.52S109.56,12.38,77.84,12.38Z"/>
      </g>
    </g>
    <circle class="cls-1" cx="77.8" cy="69.9" r="61.05"/>
  </g>
  <g>
    <path class="cls-3" d="M70.56,54.25c0,1.35,1.1,2.44,2.45,2.45h8.98c1.36,0,2.45-1.1,2.45-2.45s-1.1-2.45-2.45-2.45h-8.98c-1.36,0-2.45,1.11-2.45,2.46h0Z"/>
    <path class="cls-3" d="M81.98,62.63h-8.98c-1.36,0-2.45,1.1-2.45,2.45s1.1,2.45,2.45,2.45h8.98c1.36,0,2.45-1.1,2.45-2.45s-1.1-2.45-2.45-2.45h0Z"/>
    <path class="cls-3" d="M81.98,73.48h-8.98c-1.36,.06-2.41,1.2-2.35,2.56,.05,1.28,1.08,2.3,2.35,2.35h8.98c1.36-.06,2.41-1.2,2.35-2.56-.05-1.28-1.08-2.3-2.35-2.35Z"/>
    <path class="cls-3" d="M81.98,84.32h-8.98c-1.36,0-2.45,1.1-2.45,2.45s1.1,2.45,2.45,2.45h8.98c1.36,0,2.45-1.1,2.45-2.45s-1.1-2.45-2.45-2.45h0Z"/>
    <path class="cls-3" d="M53.5,67.54h11.16c1.27,0,2.29-1.03,2.29-2.29v-11.16c0-1.27-1.03-2.29-2.29-2.29h-11.16c-1.27,0-2.29,1.03-2.29,2.29v11.16c0,1.27,1.03,2.29,2.29,2.29Zm1.18-8.95c.59-.59,1.55-.59,2.15,0l1.13,1.13,3.37-3.35c.59-.59,1.55-.59,2.15,0,.59,.59,.59,1.55,0,2.14h0s-4.45,4.44-4.45,4.44c-.59,.59-1.55,.59-2.15,0l-2.21-2.21c-.6-.59-.6-1.55,0-2.15,0,0,0,0,.01-.01Z"/>
    <path class="cls-3" d="M53.5,89.23h11.16c1.27,0,2.29-1.03,2.29-2.29v-11.18c0-1.27-1.02-2.3-2.29-2.3,0,0,0,0,0,0h-11.16c-1.27,0-2.29,1.03-2.29,2.29,0,0,0,0,0,0v11.16c0,1.27,1.01,2.3,2.28,2.31,0,0,.01,0,.02,0Zm1.18-8.93c.59-.59,1.55-.59,2.15,0l1.13,1.14,3.37-3.35c.59-.59,1.55-.59,2.15,0,.59,.59,.59,1.55,0,2.15h0l-4.45,4.42c-.59,.59-1.55,.59-2.15,0l-2.21-2.19c-.6-.59-.6-1.55-.01-2.15,0,0,0,0,.01-.01Z"/>
    <path class="cls-3" d="M44.87,94.31V45.56c0-.86,.7-1.56,1.56-1.56h3.64v-5.67h-9.32c-.86,0-1.55,.7-1.56,1.56v60.1c0,.84,.7,1.52,1.54,1.51,0,0,0,0,.01,0h36.57l.1-1.15c.19-1.56,.6-3.08,1.21-4.52H46.43c-.85,.01-1.54-.66-1.56-1.51Z"/>
    <path class="cls-3" d="M90.76,45.56v22.83c1.71-1.15,3.64-1.92,5.67-2.26v-26.24c.02-.84-.65-1.54-1.49-1.56,0,0-.01,0-.02,0h-9.36v5.67h3.69c.84,0,1.52,.7,1.51,1.54,0,0,0,.01,0,.02Z"/>
    <path class="cls-3" d="M55.91,45.19h23.81c.59,0,1.08-.48,1.08-1.08v-6.26c0-.6-.49-1.09-1.09-1.09h-6.07v-2.72c0-2.78-1.87-5.32-4.61-5.89-3.17-.67-6.28,1.36-6.94,4.53-.08,.38-.12,.78-.13,1.17v2.93h-6.06c-.6,0-1.09,.49-1.09,1.09h0v6.24c0,.6,.5,1.08,1.09,1.08Zm11.92-13.47c1.17,0,2.13,.95,2.13,2.13s-.95,2.13-2.13,2.13-2.13-.95-2.13-2.13c0-1.17,.95-2.12,2.13-2.13Z"/>
    <path class="cls-3" d="M115.11,100.93c-.58-4.77-3.91-8.76-8.51-10.18-.45-.13-.92,.12-1.07,.56l-4.58,13.1-1.05-8.56h.7c.42,0,.76-.34,.76-.76,0,0,0,0,0,0v-2.35c0-.42-.34-.76-.76-.77,0,0,0,0,0,0h-3.84c-.42,0-.77,.34-.77,.77v2.35c0,.42,.34,.77,.77,.77h.7l-1.05,8.56-4.58-13.1c-.15-.44-.62-.68-1.07-.56-4.6,1.42-7.93,5.4-8.51,10.18l-.62,7.02c-.15,1.92,1.28,3.61,3.21,3.76,.09,0,.18,.01,.27,.01l27.09,.05c1.93,0,3.49-1.56,3.5-3.49,0-.1,0-.2-.01-.3l-.59-7.05Z"/>
    <circle class="cls-3" cx="98.71" cy="80.11" r="9.29"/>
  </g>
</svg>