<?xml version="1.0" encoding="UTF-8"?>
<svg id="Layer_1" data-name="Layer 1" xmlns="http://www.w3.org/2000/svg" xmlns:xlink="http://www.w3.org/1999/xlink" viewBox="0 0 176.91 139.79">
  <defs>
    <style>
      .cls-1 {
        fill: url(#linear-gradient);
      }

      .cls-2 {
        fill: #ed1c24;
      }

      .cls-3 {
        fill: #101b4e;
      }

      .cls-4 {
        fill: #1c5dff;
      }
    </style>
    <linearGradient id="linear-gradient" x1="45.36" y1="113.07" x2="131.71" y2="26.72" gradientUnits="userSpaceOnUse">
      <stop offset="0" stop-color="#dbdfe2"/>
      <stop offset="1" stop-color="#fff"/>
    </linearGradient>
  </defs>
  <g>
    <g>
      <path class="cls-4" d="M117.48,119.93c16.59-10.47,26.71-25.17,28.28-44.72,1.9-23.67-7.73-42.13-27.77-54.85-10.67-6.77-22.57-9.2-35.15-7.99-12.55,1.21-23.49,6.17-32.97,14.54-2.67-2.98-5.32-5.93-8.09-9.03C59.72,2.66,80.15-3.19,103.19,1.67c27.53,5.8,47.45,27.43,53.14,52.49,3.4,14.96,2.12,29.55-4,43.61-6.12,14.06-15.97,24.89-29.19,32.74"/>
      <path class="cls-4" d="M41.35,36.53c-4.6,6.57-7.71,13.67-9.38,21.48-3.9-1.05-7.71-2.08-11.63-3.14,2.04-9.2,5.76-17.57,11.19-25.3,3.29,2.33,6.52,4.62,9.82,6.96Z"/>
      <path class="cls-4" d="M34.78,91.7c1.45,2.74,2.74,5.44,4.28,7.99,1.54,2.55,3.32,4.95,5.06,7.5-2.89,2.53-5.86,5.13-8.93,7.8-.8-1-1.58-1.92-2.31-2.89-2.97-3.95-5.52-8.16-7.64-12.62-.32-.66-.28-.98,.37-1.42,3.11-2.1,6.17-4.28,9.17-6.37Z"/>
      <path class="cls-4" d="M21.35,88.94c-2.02-7.07-2.8-14.14-2.58-21.45,4.02,.15,7.96,.29,12.01,.44,0,1.41-.03,2.74,0,4.07,.09,3.66,.59,7.26,1.44,10.82,.15,.62,.05,.88-.55,1.16-3.42,1.61-6.82,3.28-10.32,4.97Z"/>
      <path class="cls-4" d="M46.59,125.76c2.37-3.29,4.68-6.5,7.03-9.77,4.39,3.31,9.09,5.93,14.22,7.93-1.51,3.74-2.99,7.42-4.5,11.17-6.02-2.35-11.55-5.41-16.74-9.34Z"/>
      <path class="cls-4" d="M76.25,138.74c.75-4.01,1.48-7.89,2.22-11.82,1.44,.17,2.84,.4,4.25,.49,2.42,.15,4.84,.24,7.26,.3,.58,.01,.84,.15,1.02,.72,1.14,3.66,2.33,7.31,3.54,11.05-6.14,.55-12.17,.27-18.28-.75Z"/>
    </g>
    <g>
      <path class="cls-2" d="M88.62,12.38c-31.72,0-57.52,25.8-57.52,57.52s25.8,57.52,57.52,57.52,57.52-25.8,57.52-57.52S120.34,12.38,88.62,12.38Z"/>
      <circle class="cls-1" cx="88.53" cy="69.9" r="61.05"/>
    </g>
    <path class="cls-4" d="M123.49,131.08c1.65,3.08,3.27,5.53,4.97,8.71-9.56-2.29-19.01-3.96-28.59-6.25,4.57-7,9.07-13.89,13.69-20.97,1.44,2.68,2.8,5.2,4.25,7.88"/>
  </g>
  <g>
    <g>
      <rect class="cls-3" x="88.88" y="60.6" width="7.1" height="12.62" rx=".95" ry=".95"/>
      <rect class="cls-3" x="99.29" y="54.6" width="7.1" height="18.62" rx=".95" ry=".95"/>
      <rect class="cls-3" x="109.71" y="56.89" width="7.1" height="16.33" rx=".95" ry=".95"/>
      <rect class="cls-3" x="120.13" y="49.7" width="7.1" height="23.52" rx=".95" ry=".95"/>
    </g>
    <path class="cls-3" d="M132.44,82.25h-44.41c-.68,0-1.24-.55-1.24-1.24s.56-1.24,1.24-1.24h44.41c.43,0,.79-.32,.79-.7V40.3c0-.39-.35-.7-.79-.7h-54.95c-.43,0-.79,.31-.79,.7v11.13c0,.68-.56,1.24-1.24,1.24s-1.24-.55-1.24-1.24v-11.13c0-1.75,1.47-3.18,3.27-3.18h54.95c1.8,0,3.27,1.43,3.27,3.18v38.76c0,1.75-1.47,3.18-3.27,3.18Z"/>
    <g>
      <path class="cls-3" d="M61.95,92.06c-11.44,0-20.76-9.31-20.76-20.76s9.31-20.76,20.76-20.76,20.76,9.31,20.76,20.76-9.31,20.76-20.76,20.76Zm0-39.17c-10.15,0-18.41,8.26-18.41,18.41s8.26,18.41,18.41,18.41,18.41-8.26,18.41-18.41-8.26-18.41-18.41-18.41Z"/>
      <rect class="cls-3" x="77.59" y="83.68" width="2.07" height="9.3" transform="translate(-39.16 77.85) rotate(-43.24)"/>
      <path class="cls-3" d="M82.62,89.6l-1.38,.52c-.44,.17-.8,.5-.99,.93l-.6,1.35c-.29,.65-.16,1.42,.33,1.94l9.19,9.78c.67,.71,1.79,.75,2.5,.08l1.99-1.87c.71-.67,.75-1.79,.08-2.5l-9.19-9.78c-.49-.52-1.25-.7-1.92-.44Z"/>
      <path class="cls-3" d="M61.95,59.18c-6.77,0-12.28,5.51-12.28,12.28s5.51,12.28,12.28,12.28,12.28-5.51,12.28-12.28-5.51-12.28-12.28-12.28Z"/>
    </g>
  </g>
</svg>