<?xml version="1.0" encoding="UTF-8"?>
<svg id="Layer_1" data-name="Layer 1" xmlns="http://www.w3.org/2000/svg" xmlns:xlink="http://www.w3.org/1999/xlink" viewBox="0 0 176.91 139.79">
  <defs>
    <style>
      .cls-1 {
        fill: url(#linear-gradient);
      }

      .cls-2 {
        fill: #ed1c24;
      }

      .cls-3, .cls-4 {
        fill: #101b4e;
      }

      .cls-5 {
        fill: #1c5dff;
      }

      .cls-4 {
        stroke: #101b4e;
        stroke-miterlimit: 10;
      }
    </style>
    <linearGradient id="linear-gradient" x1="45.36" y1="113.07" x2="131.71" y2="26.72" gradientUnits="userSpaceOnUse">
      <stop offset="0" stop-color="#dbdfe2"/>
      <stop offset="1" stop-color="#fff"/>
    </linearGradient>
  </defs>
  <g>
    <g>
      <path class="cls-5" d="M117.48,119.93c16.59-10.47,26.71-25.17,28.28-44.72,1.9-23.67-7.73-42.13-27.77-54.85-10.67-6.77-22.57-9.2-35.15-7.99-12.55,1.21-23.49,6.17-32.97,14.54-2.67-2.98-5.32-5.93-8.09-9.03C59.72,2.66,80.15-3.19,103.19,1.67c27.53,5.8,47.45,27.43,53.14,52.49,3.4,14.96,2.12,29.55-4,43.61-6.12,14.06-15.97,24.89-29.19,32.74"/>
      <path class="cls-5" d="M41.35,36.53c-4.6,6.57-7.71,13.67-9.38,21.48-3.9-1.05-7.71-2.08-11.63-3.14,2.04-9.2,5.76-17.57,11.19-25.3,3.29,2.33,6.52,4.62,9.82,6.96Z"/>
      <path class="cls-5" d="M34.78,91.7c1.45,2.74,2.74,5.44,4.28,7.99,1.54,2.55,3.32,4.95,5.06,7.5-2.89,2.53-5.86,5.13-8.93,7.8-.8-1-1.58-1.92-2.31-2.89-2.97-3.95-5.52-8.16-7.64-12.62-.32-.66-.28-.98,.37-1.42,3.11-2.1,6.17-4.28,9.17-6.37Z"/>
      <path class="cls-5" d="M21.35,88.94c-2.02-7.07-2.8-14.14-2.58-21.45,4.02,.15,7.96,.29,12.01,.44,0,1.41-.03,2.74,0,4.07,.09,3.66,.59,7.26,1.44,10.82,.15,.62,.05,.88-.55,1.16-3.42,1.61-6.82,3.28-10.32,4.97Z"/>
      <path class="cls-5" d="M46.59,125.76c2.37-3.29,4.68-6.5,7.03-9.77,4.39,3.31,9.09,5.93,14.22,7.93-1.51,3.74-2.99,7.42-4.5,11.17-6.02-2.35-11.55-5.41-16.74-9.34Z"/>
      <path class="cls-5" d="M76.25,138.74c.75-4.01,1.48-7.89,2.22-11.82,1.44,.17,2.84,.4,4.25,.49,2.42,.15,4.84,.24,7.26,.3,.58,.01,.84,.15,1.02,.72,1.14,3.66,2.33,7.31,3.54,11.05-6.14,.55-12.17,.27-18.28-.75Z"/>
    </g>
    <g>
      <path class="cls-2" d="M88.62,12.38c-31.72,0-57.52,25.8-57.52,57.52s25.8,57.52,57.52,57.52,57.52-25.8,57.52-57.52S120.34,12.38,88.62,12.38Z"/>
      <circle class="cls-1" cx="88.53" cy="69.9" r="61.05"/>
    </g>
    <path class="cls-5" d="M123.49,131.08c1.65,3.08,3.27,5.53,4.97,8.71-9.56-2.29-19.01-3.96-28.59-6.25,4.57-7,9.07-13.89,13.69-20.97,1.44,2.68,2.8,5.2,4.25,7.88"/>
  </g>
  <g>
    <path class="cls-4" d="M100.07,44.95l-.28-.11-.28,.11c-.99,.45-2.07,.68-3.15,.66h-20.6l.28,.92c1.18,4.17-1.25,8.51-5.42,9.69-.68,.19-1.39,.29-2.1,.29-1.07,.01-2.14-.22-3.12-.66l-.6-.28-.32,.56c-7.81,13.26-3.39,30.35,9.88,38.15,.56,.33,1.13,.64,1.72,.93l.35,.14,.32-.17c1.16-.68,2.48-1.03,3.82-1.02h20.6l-.28-.88c-1.2-4.14,1.19-8.48,5.33-9.68,1.87-.54,3.87-.37,5.62,.49l.6,.32,.35-.6c7.47-13.48,2.6-30.47-10.88-37.95-.6-.33-1.21-.64-1.84-.93h.02Zm-9.25,37.78v2.91c-.02,.47-.41,.83-.88,.84h-3.01c-.46,0-.84-.38-.84-.84v-2.84c-3.11-.27-5.59-2.73-5.89-5.84-.02-.23,.06-.46,.21-.63,.16-.18,.39-.28,.63-.28h3.05c.39-.01,.74,.25,.84,.63,.18,.85,.92,1.46,1.79,1.47h2.69c1.54,.1,2.86-1.07,2.96-2.61,.05-.75-.21-1.49-.71-2.04-.53-.58-1.28-.91-2.07-.92h-1.96c-4,0-7.43-2.94-7.79-6.73-.4-3.93,2.33-7.49,6.23-8.12v-2.83c0-.47,.37-.87,.84-.88h3.01c.48,0,.87,.39,.88,.88v2.8c3.11,.29,5.59,2.74,5.9,5.85,.03,.23-.06,.45-.24,.6-.15,.19-.39,.3-.63,.28h-3.05c-.38,.01-.72-.25-.81-.63-.19-.86-.95-1.48-1.83-1.48h-2.66c-1.47-.04-2.73,1.03-2.94,2.49-.07,.79,.18,1.58,.71,2.17,.52,.57,1.26,.9,2.03,.92h2.31c2.12,.02,4.13,.91,5.58,2.46,1.43,1.57,2.12,3.67,1.89,5.78-.32,3.24-2.87,5.91-6.24,6.59Z"/>
    <path class="cls-3" d="M68.52,51.52c-.76,0-1.48-.3-2.01-.83l-10.88-10.88c-1.11-1.11-1.11-2.9,0-4.01,0,0,0,0,0,0l10.88-10.88c1.11-1.11,2.91-1.11,4.02,0,1.11,1.11,1.11,2.91,0,4.02l-6.02,6.03h31.86c1.57,.06,2.79,1.39,2.73,2.96-.06,1.48-1.25,2.67-2.73,2.73h-31.86l6.03,6.03c1.1,1.11,1.1,2.91,0,4.02-.53,.54-1.26,.84-2.01,.83Z"/>
    <path class="cls-3" d="M108.39,115.72c-1.57,0-2.84-1.27-2.84-2.84h0c0-.76,.3-1.48,.83-2.01l6.02-6.03h-31.86c-1.57-.06-2.79-1.39-2.73-2.96,.06-1.48,1.25-2.67,2.73-2.73h31.86l-6.03-6.03c-1.11-1.11-1.11-2.91,0-4.02,1.11-1.11,2.91-1.11,4.03,0l10.87,10.88c1.11,1.11,1.11,2.9,0,4.01,0,0,0,0,0,0l-10.88,10.88c-.53,.54-1.26,.84-2.01,.83Z"/>
  </g>
</svg>