<?xml version="1.0" encoding="UTF-8"?>
<svg id="Layer_1" data-name="Layer 1" xmlns="http://www.w3.org/2000/svg" xmlns:xlink="http://www.w3.org/1999/xlink" viewBox="0 0 176.91 139.79">
  <defs>
    <style>
      .cls-1 {
        fill: url(#linear-gradient);
      }

      .cls-2 {
        fill: #ed1c24;
      }

      .cls-3 {
        fill: #101b4e;
      }
    </style>
    <linearGradient id="linear-gradient" x1="38.63" y1="113.45" x2="124.98" y2="27.1" gradientUnits="userSpaceOnUse">
      <stop offset="0" stop-color="#dbdfe2"/>
      <stop offset="1" stop-color="#fff"/>
    </linearGradient>
  </defs>
  <g>
    <g>
      <g>
        <circle class="cls-2" cx="82.1" cy="70.28" r="63.71"/>
        <path class="cls-2" d="M82.1,140.17c-38.54,0-69.9-31.36-69.9-69.9S43.56,.38,82.1,.38s69.9,31.35,69.9,69.9-31.35,69.9-69.9,69.9Zm0-127.42c-31.72,0-57.52,25.8-57.52,57.52s25.8,57.52,57.52,57.52,57.52-25.8,57.52-57.52S113.82,12.76,82.1,12.76Z"/>
      </g>
      <path class="cls-3" d="M158.65,75.43c1.65,0,3.07,.6,4.27,1.79,1.19,1.19,1.79,2.61,1.79,4.26s-.59,3.07-1.79,4.27-2.61,1.79-4.27,1.79-3.07-.6-4.26-1.79c-1.19-1.19-1.79-2.61-1.79-4.27s.6-3.07,1.79-4.26c1.19-1.19,2.61-1.79,4.26-1.79Zm5.73,58.81h-11.37v-10.48l2.44-29.33h6.5l2.44,29.33v10.48Z"/>
    </g>
    <circle class="cls-1" cx="81.8" cy="70.28" r="61.05"/>
  </g>
  <g>
    <g>
      <rect class="cls-3" x="82.88" y="60.6" width="7.1" height="12.62" rx=".95" ry=".95"/>
      <rect class="cls-3" x="93.29" y="54.6" width="7.1" height="18.62" rx=".95" ry=".95"/>
      <rect class="cls-3" x="103.71" y="56.89" width="7.1" height="16.33" rx=".95" ry=".95"/>
      <rect class="cls-3" x="114.13" y="49.7" width="7.1" height="23.52" rx=".95" ry=".95"/>
    </g>
    <path class="cls-3" d="M126.44,82.25h-44.41c-.68,0-1.24-.55-1.24-1.24s.56-1.24,1.24-1.24h44.41c.43,0,.79-.32,.79-.7V40.3c0-.39-.35-.7-.79-.7h-54.95c-.43,0-.79,.31-.79,.7v11.13c0,.68-.56,1.24-1.24,1.24s-1.24-.55-1.24-1.24v-11.13c0-1.75,1.47-3.18,3.27-3.18h54.95c1.8,0,3.27,1.43,3.27,3.18v38.76c0,1.75-1.47,3.18-3.27,3.18Z"/>
    <g>
      <path class="cls-3" d="M55.95,92.06c-11.44,0-20.76-9.31-20.76-20.76s9.31-20.76,20.76-20.76,20.76,9.31,20.76,20.76-9.31,20.76-20.76,20.76Zm0-39.17c-10.15,0-18.41,8.26-18.41,18.41s8.26,18.41,18.41,18.41,18.41-8.26,18.41-18.41-8.26-18.41-18.41-18.41Z"/>
      <rect class="cls-3" x="71.59" y="83.68" width="2.07" height="9.3" transform="translate(-40.79 73.74) rotate(-43.24)"/>
      <path class="cls-3" d="M76.62,89.6l-1.38,.52c-.44,.17-.8,.5-.99,.93l-.6,1.35c-.29,.65-.16,1.42,.33,1.94l9.19,9.78c.67,.71,1.79,.75,2.5,.08l1.99-1.87c.71-.67,.75-1.79,.08-2.5l-9.19-9.78c-.49-.52-1.25-.7-1.92-.44Z"/>
      <path class="cls-3" d="M55.95,59.18c-6.77,0-12.28,5.51-12.28,12.28s5.51,12.28,12.28,12.28,12.28-5.51,12.28-12.28-5.51-12.28-12.28-12.28Z"/>
    </g>
  </g>
</svg>