<?xml version="1.0" encoding="UTF-8"?>
<svg id="Layer_1" data-name="Layer 1" xmlns="http://www.w3.org/2000/svg" xmlns:xlink="http://www.w3.org/1999/xlink" viewBox="0 0 176.91 139.79">
  <defs>
    <style>
      .cls-1 {
        fill: none;
      }

      .cls-2 {
        fill: url(#linear-gradient);
      }

      .cls-3 {
        clip-path: url(#clippath);
      }

      .cls-4 {
        fill: #ed1c24;
      }

      .cls-5 {
        fill: #101b4e;
      }
    </style>
    <linearGradient id="linear-gradient" x1="26.63" y1="113.07" x2="112.98" y2="26.72" gradientUnits="userSpaceOnUse">
      <stop offset="0" stop-color="#dbdfe2"/>
      <stop offset="1" stop-color="#fff"/>
    </linearGradient>
    <clipPath id="clippath">
      <path class="cls-1" d="M59.59,28.73h54.6V101.19h-35v-32.98c0-4.79-3.43-8.8-7.97-9.69-.19-2.58-2.35-4.62-4.97-4.62h-1.7c-2.56,0-4.68,1.94-4.96,4.43V28.73Z"/>
    </clipPath>
  </defs>
  <g>
    <g>
      <g>
        <circle class="cls-4" cx="69.9" cy="69.9" r="63.71"/>
        <path class="cls-4" d="M69.9,139.79C31.35,139.79,0,108.44,0,69.9S31.35,0,69.9,0s69.9,31.35,69.9,69.9-31.36,69.9-69.9,69.9Zm0-127.42c-31.72,0-57.52,25.8-57.52,57.52s25.8,57.52,57.52,57.52,57.52-25.8,57.52-57.52S101.61,12.38,69.9,12.38Z"/>
      </g>
      <polygon class="cls-5" points="176.91 103.2 168.45 94.75 156.26 106.93 144.08 94.75 135.62 103.2 147.81 115.39 135.62 127.58 144.08 136.03 156.26 123.84 168.45 136.03 176.91 127.58 164.72 115.39 176.91 103.2"/>
    </g>
    <circle class="cls-2" cx="69.8" cy="69.9" r="61.05"/>
  </g>
  <g>
    <g>
      <path class="cls-5" d="M66.5,56.94c1.08,0,1.96,.88,1.96,1.96v2.47h1.11c3.78,0,6.85,3.07,6.85,6.85v32.98c0,3.78-3.07,6.85-6.85,6.85H36.59c-3.78,0-6.85-3.07-6.85-6.85v-32.98c0-3.78,3.07-6.85,6.85-6.85h1.49v-2.47c0-1.08,.88-1.96,1.96-1.96h1.7c1.08,0,1.96,.88,1.96,1.96v2.47h6.57v-2.47c0-1.08,.88-1.96,1.96-1.96h1.7c1.08,0,1.96,.88,1.96,1.96v2.47h6.95v-2.47c0-1.08,.88-1.96,1.96-1.96h1.7m0-3.03h-1.7c-2.56,0-4.68,1.94-4.96,4.43h-.96c-.28-2.49-2.39-4.43-4.96-4.43h-1.7c-2.56,0-4.68,1.94-4.96,4.43h-.58c-.28-2.49-2.39-4.43-4.96-4.43h-1.7c-2.6,0-4.75,2-4.97,4.55-4.73,.73-8.36,4.83-8.36,9.76v32.98c0,5.44,4.43,9.87,9.87,9.87h32.98c5.44,0,9.87-4.43,9.87-9.87v-32.98c0-4.79-3.43-8.8-7.97-9.69-.19-2.58-2.35-4.62-4.97-4.62h0Z"/>
      <rect class="cls-5" x="33.64" y="70.47" width="11.38" height="5.21" rx="1.86" ry="1.86"/>
      <rect class="cls-5" x="47.51" y="70.47" width="11.38" height="5.21" rx="1.86" ry="1.86"/>
      <rect class="cls-5" x="61.29" y="70.47" width="11.38" height="5.21" rx="1.86" ry="1.86"/>
      <rect class="cls-5" x="33.64" y="78.75" width="11.38" height="5.21" rx="1.86" ry="1.86"/>
      <rect class="cls-5" x="47.51" y="78.75" width="11.38" height="5.21" rx="1.86" ry="1.86"/>
      <rect class="cls-5" x="61.29" y="78.75" width="11.38" height="5.21" rx="1.86" ry="1.86"/>
      <rect class="cls-5" x="33.64" y="85.93" width="11.38" height="5.21" rx="1.86" ry="1.86"/>
      <rect class="cls-5" x="47.51" y="85.93" width="11.38" height="5.21" rx="1.86" ry="1.86"/>
      <rect class="cls-5" x="61.29" y="85.93" width="11.38" height="5.21" rx="1.86" ry="1.86"/>
      <rect class="cls-5" x="33.64" y="94.21" width="11.38" height="5.21" rx="1.86" ry="1.86"/>
      <rect class="cls-5" x="47.51" y="94.21" width="11.38" height="5.21" rx="1.86" ry="1.86"/>
      <rect class="cls-5" x="61.29" y="94.21" width="11.38" height="5.21" rx="1.86" ry="1.86"/>
    </g>
    <g class="cls-3">
      <g>
        <path class="cls-5" d="M99.87,75.61v5.19h-34.34V36.85h34.34v17.05l3.15-3.72c.32-.38,.69-.72,1.1-1v-14.93c0-.91-.75-1.65-1.67-1.64H62.94c-.92,0-1.66,.74-1.66,1.66v50.78h41.18c.92,0,1.66-.74,1.66-1.66h0v-12.52l-2.95,3.49c-.39,.46-.82,.88-1.3,1.25Z"/>
        <path class="cls-5" d="M91.1,75.97c.22,.05,.45,.04,.66-.05l4.14-1.78c.79-.36,1.51-.85,2.12-1.46l-5.52-4.67c-.5,.71-.87,1.5-1.09,2.33l-1.07,4.37c-.14,.56,.2,1.12,.76,1.26Z"/>
        <path class="cls-5" d="M111,53.86s0,0,0,0l-2.07-1.75c-.99-.84-2.47-.71-3.31,.28l-10.99,12.97,5.65,4.78,10.99-12.97c.84-.99,.71-2.47-.28-3.31Z"/>
        <path class="cls-5" d="M68.42,73.74c0,1.17,.95,2.12,2.13,2.13h15.85l.98-4.25h-16.83c-1.17,0-2.12,.95-2.13,2.13Z"/>
        <path class="cls-5" d="M91.4,63.21h-20.85c-1.17,0-2.12,.95-2.13,2.13,0,1.17,.95,2.12,2.13,2.13h19.87l.98-4.25Z"/>
        <path class="cls-5" d="M97.4,57.31c0-1.17-.95-2.12-2.13-2.13h-24.76c-1.17,0-2.12,.95-2.13,2.13,0,1.17,.95,2.12,2.13,2.13h24.76c1.17,0,2.12-.95,2.13-2.13Z"/>
        <path class="cls-5" d="M95.27,47.15h-24.76c-1.17,0-2.12,.95-2.13,2.13,0,1.17,.95,2.12,2.13,2.13h24.76c1.17,0,2.12-.95,2.13-2.13,0-1.17-.95-2.12-2.13-2.13Z"/>
        <path class="cls-5" d="M95.27,39.45h-24.76c-1.17,0-2.12,.95-2.13,2.13,0,1.17,.95,2.12,2.13,2.13h24.76c1.17,0,2.12-.95,2.13-2.13,0-1.17-.95-2.12-2.13-2.13Z"/>
      </g>
    </g>
  </g>
</svg>