<?xml version="1.0" encoding="UTF-8"?>
<svg id="Layer_1" data-name="Layer 1" xmlns="http://www.w3.org/2000/svg" xmlns:xlink="http://www.w3.org/1999/xlink" viewBox="0 0 176.91 139.79">
  <defs>
    <style>
      .cls-1 {
        fill: url(#linear-gradient);
      }

      .cls-2 {
        fill: #ed1c24;
      }

      .cls-3 {
        fill: #101b4e;
      }
    </style>
    <linearGradient id="linear-gradient" x1="38.63" y1="113.45" x2="124.98" y2="27.1" gradientUnits="userSpaceOnUse">
      <stop offset="0" stop-color="#dbdfe2"/>
      <stop offset="1" stop-color="#fff"/>
    </linearGradient>
  </defs>
  <g>
    <g>
      <g>
        <circle class="cls-2" cx="82.1" cy="70.28" r="63.71"/>
        <path class="cls-2" d="M82.1,140.17c-38.54,0-69.9-31.36-69.9-69.9S43.56,.38,82.1,.38s69.9,31.35,69.9,69.9-31.35,69.9-69.9,69.9Zm0-127.42c-31.72,0-57.52,25.8-57.52,57.52s25.8,57.52,57.52,57.52,57.52-25.8,57.52-57.52S113.82,12.76,82.1,12.76Z"/>
      </g>
      <path class="cls-3" d="M158.65,75.43c1.65,0,3.07,.6,4.27,1.79,1.19,1.19,1.79,2.61,1.79,4.26s-.59,3.07-1.79,4.27-2.61,1.79-4.27,1.79-3.07-.6-4.26-1.79c-1.19-1.19-1.79-2.61-1.79-4.27s.6-3.07,1.79-4.26c1.19-1.19,2.61-1.79,4.26-1.79Zm5.73,58.81h-11.37v-10.48l2.44-29.33h6.5l2.44,29.33v10.48Z"/>
    </g>
    <circle class="cls-1" cx="81.8" cy="70.28" r="61.05"/>
  </g>
  <g>
    <path class="cls-3" d="M110.46,27.87h-12.59c-1.62,0-2.94,1.32-2.94,2.94s1.32,2.94,2.94,2.94h5.49l-16.97,16.97-13.53-13.52c-1.15-1.15-3.01-1.15-4.16,0l-18.43,18.43c-1.15,1.15-1.15,3.01,0,4.16,.57,.57,1.33,.86,2.08,.86s1.5-.29,2.08-.86l16.35-16.35,13.53,13.52c1.15,1.15,3.01,1.15,4.16,0l19.05-19.05v5.49c0,1.63,1.32,2.94,2.94,2.94s2.94-1.32,2.94-2.94v-12.59c0-1.63-1.32-2.94-2.94-2.94Z"/>
    <path class="cls-3" d="M50.92,68.76h9.07c.6,0,1.09,.49,1.09,1.09v11.84c0,.6-.49,1.09-1.09,1.09h-9.07c-.6,0-1.09-.49-1.09-1.09v-11.84c0-.6,.49-1.09,1.09-1.09Z"/>
    <path class="cls-3" d="M78.2,61.02c0-.59-.47-1.09-1.09-1.09h-9.06c-.62,0-1.09,.5-1.09,1.09v20.67c0,.15,.03,.26,.09,.38,3.35-1.47,7.12-2.62,11.14-3v-18.05Z"/>
    <rect class="cls-3" x="101.23" y="54.06" width="11.25" height="28.73" rx="1.09" ry="1.09"/>
    <path class="cls-3" d="M95.34,66.9c0-.59-.5-1.09-1.09-1.09h-9.06c-.62,0-1.12,.5-1.12,1.09v12.11c4.06,.32,7.85,1.41,11.23,2.85,.03-.06,.03-.12,.03-.18v-14.79Z"/>
    <path class="cls-3" d="M81.41,84.2c-14.99,0-26.74,12.86-27.23,13.42-1.25,1.4-1.25,3.51,0,4.88,.5,.56,12.24,13.42,27.23,13.42s26.74-12.86,27.23-13.42c1.25-1.38,1.25-3.48,0-4.88-.5-.56-12.24-13.42-27.23-13.42Zm0,26.61c-5.94,0-10.75-4.8-10.75-10.73s4.82-10.76,10.75-10.76,10.76,4.82,10.76,10.76-4.82,10.73-10.76,10.73Z"/>
    <path class="cls-3" d="M81.41,93.88c-.3,0-.58,.02-.86,.09,.17,.41,.28,.88,.28,1.36,0,1.85-1.5,3.34-3.35,3.34-.71,0-1.38-.22-1.91-.58-.22,.62-.34,1.29-.34,2,0,3.4,2.78,6.17,6.19,6.17s6.2-2.77,6.2-6.17-2.78-6.19-6.2-6.19Z"/>
  </g>
</svg>