<?xml version="1.0" encoding="UTF-8"?>
<svg id="Layer_1" data-name="Layer 1" xmlns="http://www.w3.org/2000/svg" xmlns:xlink="http://www.w3.org/1999/xlink" viewBox="0 0 176.91 139.79">
  <defs>
    <style>
      .cls-1 {
        fill: url(#linear-gradient);
      }

      .cls-2 {
        fill: #ed1c24;
      }

      .cls-3 {
        fill: #101b4e;
      }

      .cls-4 {
        fill: #1c5dff;
      }
    </style>
    <linearGradient id="linear-gradient" x1="45.36" y1="113.07" x2="131.71" y2="26.72" gradientUnits="userSpaceOnUse">
      <stop offset="0" stop-color="#dbdfe2"/>
      <stop offset="1" stop-color="#fff"/>
    </linearGradient>
  </defs>
  <g>
    <g>
      <path class="cls-4" d="M117.48,119.93c16.59-10.47,26.71-25.17,28.28-44.72,1.9-23.67-7.73-42.13-27.77-54.85-10.67-6.77-22.57-9.2-35.15-7.99-12.55,1.21-23.49,6.17-32.97,14.54-2.67-2.98-5.32-5.93-8.09-9.03C59.72,2.66,80.15-3.19,103.19,1.67c27.53,5.8,47.45,27.43,53.14,52.49,3.4,14.96,2.12,29.55-4,43.61-6.12,14.06-15.97,24.89-29.19,32.74"/>
      <path class="cls-4" d="M41.35,36.53c-4.6,6.57-7.71,13.67-9.38,21.48-3.9-1.05-7.71-2.08-11.63-3.14,2.04-9.2,5.76-17.57,11.19-25.3,3.29,2.33,6.52,4.62,9.82,6.96Z"/>
      <path class="cls-4" d="M34.78,91.7c1.45,2.74,2.74,5.44,4.28,7.99,1.54,2.55,3.32,4.95,5.06,7.5-2.89,2.53-5.86,5.13-8.93,7.8-.8-1-1.58-1.92-2.31-2.89-2.97-3.95-5.52-8.16-7.64-12.62-.32-.66-.28-.98,.37-1.42,3.11-2.1,6.17-4.28,9.17-6.37Z"/>
      <path class="cls-4" d="M21.35,88.94c-2.02-7.07-2.8-14.14-2.58-21.45,4.02,.15,7.96,.29,12.01,.44,0,1.41-.03,2.74,0,4.07,.09,3.66,.59,7.26,1.44,10.82,.15,.62,.05,.88-.55,1.16-3.42,1.61-6.82,3.28-10.32,4.97Z"/>
      <path class="cls-4" d="M46.59,125.76c2.37-3.29,4.68-6.5,7.03-9.77,4.39,3.31,9.09,5.93,14.22,7.93-1.51,3.74-2.99,7.42-4.5,11.17-6.02-2.35-11.55-5.41-16.74-9.34Z"/>
      <path class="cls-4" d="M76.25,138.74c.75-4.01,1.48-7.89,2.22-11.82,1.44,.17,2.84,.4,4.25,.49,2.42,.15,4.84,.24,7.26,.3,.58,.01,.84,.15,1.02,.72,1.14,3.66,2.33,7.31,3.54,11.05-6.14,.55-12.17,.27-18.28-.75Z"/>
    </g>
    <g>
      <path class="cls-2" d="M88.62,12.38c-31.72,0-57.52,25.8-57.52,57.52s25.8,57.52,57.52,57.52,57.52-25.8,57.52-57.52S120.34,12.38,88.62,12.38Z"/>
      <circle class="cls-1" cx="88.53" cy="69.9" r="61.05"/>
    </g>
    <path class="cls-4" d="M123.49,131.08c1.65,3.08,3.27,5.53,4.97,8.71-9.56-2.29-19.01-3.96-28.59-6.25,4.57-7,9.07-13.89,13.69-20.97,1.44,2.68,2.8,5.2,4.25,7.88"/>
  </g>
  <g>
    <path class="cls-3" d="M75.57,81.22c0,1.55,1.26,2.81,2.81,2.81h17.23c.03-.28,.08-.56,.14-.87l1.15-4.75h-18.52c-1.55,0-2.81,1.26-2.81,2.81Z"/>
    <path class="cls-3" d="M112.72,85.4v6.86h-45.39V34.17h45.39v22.54l4.17-4.91c.42-.51,.91-.95,1.46-1.32V30.74c-.01-1.21-.99-2.18-2.2-2.17H63.91c-1.21,0-2.19,.98-2.19,2.19v11.12h-11.14c-1.21,0-2.2,.98-2.2,2.2h0V109.03c0,1.21,.99,2.19,2.2,2.19h52.24c1.21,0,2.19-.98,2.19-2.19h0v-11.14h11.14c1.21,0,2.19-.98,2.19-2.19h0v-16.55l-3.9,4.61c-.51,.61-1.09,1.16-1.72,1.65Zm-13.34,20.19H54V47.51h7.71v48.18c0,1.21,.98,2.19,2.19,2.2,0,0,0,0,0,0h35.48v7.71Z"/>
    <path class="cls-3" d="M100.13,84.23c-.18,.74,.27,1.48,1,1.66,.29,.07,.6,.05,.87-.07l5.47-2.35c1.04-.47,1.99-1.12,2.8-1.93l-7.3-6.17c-.66,.93-1.15,1.98-1.44,3.08l-1.41,5.78Z"/>
    <path class="cls-3" d="M127.43,56.66l-2.74-2.31c-1.31-1.1-3.26-.94-4.37,.37l-14.53,17.15,7.47,6.32,14.53-17.15c1.11-1.31,.94-3.27-.37-4.38,0,0,0,0,0,0Z"/>
    <path class="cls-3" d="M90.02,41.72c-8.05,.01-14.56,6.54-14.55,14.59,.01,8.05,6.54,14.56,14.59,14.55,8.03-.01,14.54-6.52,14.55-14.55,0-8.06-6.53-14.59-14.59-14.59h0Zm6.83,12.92l-7.2,7.21c-.89,.89-2.33,.89-3.23,0l-3.58-3.58c-.86-.92-.81-2.37,.11-3.23,.88-.82,2.24-.82,3.11,0l1.96,1.97,5.58-5.59c.92-.86,2.37-.81,3.23,.11,.82,.88,.82,2.24,0,3.11h0Z"/>
  </g>
</svg>