<?xml version="1.0" encoding="UTF-8"?>
<svg id="Layer_1" data-name="Layer 1" xmlns="http://www.w3.org/2000/svg" xmlns:xlink="http://www.w3.org/1999/xlink" viewBox="0 0 176.91 139.79">
  <defs>
    <style>
      .cls-1 {
        fill: url(#linear-gradient);
      }

      .cls-2 {
        fill: #ed1c24;
      }

      .cls-3 {
        fill: #101b4e;
      }

      .cls-4 {
        fill: #1c5dff;
      }
    </style>
    <linearGradient id="linear-gradient" x1="45.36" y1="113.07" x2="131.71" y2="26.72" gradientUnits="userSpaceOnUse">
      <stop offset="0" stop-color="#dbdfe2"/>
      <stop offset="1" stop-color="#fff"/>
    </linearGradient>
  </defs>
  <g>
    <g>
      <path class="cls-4" d="M117.48,119.93c16.59-10.47,26.71-25.17,28.28-44.72,1.9-23.67-7.73-42.13-27.77-54.85-10.67-6.77-22.57-9.2-35.15-7.99-12.55,1.21-23.49,6.17-32.97,14.54-2.67-2.98-5.32-5.93-8.09-9.03C59.72,2.66,80.15-3.19,103.19,1.67c27.53,5.8,47.45,27.43,53.14,52.49,3.4,14.96,2.12,29.55-4,43.61-6.12,14.06-15.97,24.89-29.19,32.74"/>
      <path class="cls-4" d="M41.35,36.53c-4.6,6.57-7.71,13.67-9.38,21.48-3.9-1.05-7.71-2.08-11.63-3.14,2.04-9.2,5.76-17.57,11.19-25.3,3.29,2.33,6.52,4.62,9.82,6.96Z"/>
      <path class="cls-4" d="M34.78,91.7c1.45,2.74,2.74,5.44,4.28,7.99,1.54,2.55,3.32,4.95,5.06,7.5-2.89,2.53-5.86,5.13-8.93,7.8-.8-1-1.58-1.92-2.31-2.89-2.97-3.95-5.52-8.16-7.64-12.62-.32-.66-.28-.98,.37-1.42,3.11-2.1,6.17-4.28,9.17-6.37Z"/>
      <path class="cls-4" d="M21.35,88.94c-2.02-7.07-2.8-14.14-2.58-21.45,4.02,.15,7.96,.29,12.01,.44,0,1.41-.03,2.74,0,4.07,.09,3.66,.59,7.26,1.44,10.82,.15,.62,.05,.88-.55,1.16-3.42,1.61-6.82,3.28-10.32,4.97Z"/>
      <path class="cls-4" d="M46.59,125.76c2.37-3.29,4.68-6.5,7.03-9.77,4.39,3.31,9.09,5.93,14.22,7.93-1.51,3.74-2.99,7.42-4.5,11.17-6.02-2.35-11.55-5.41-16.74-9.34Z"/>
      <path class="cls-4" d="M76.25,138.74c.75-4.01,1.48-7.89,2.22-11.82,1.44,.17,2.84,.4,4.25,.49,2.42,.15,4.84,.24,7.26,.3,.58,.01,.84,.15,1.02,.72,1.14,3.66,2.33,7.31,3.54,11.05-6.14,.55-12.17,.27-18.28-.75Z"/>
    </g>
    <g>
      <path class="cls-2" d="M88.62,12.38c-31.72,0-57.52,25.8-57.52,57.52s25.8,57.52,57.52,57.52,57.52-25.8,57.52-57.52S120.34,12.38,88.62,12.38Z"/>
      <circle class="cls-1" cx="88.53" cy="69.9" r="61.05"/>
    </g>
    <path class="cls-4" d="M123.49,131.08c1.65,3.08,3.27,5.53,4.97,8.71-9.56-2.29-19.01-3.96-28.59-6.25,4.57-7,9.07-13.89,13.69-20.97,1.44,2.68,2.8,5.2,4.25,7.88"/>
  </g>
  <g>
    <path class="cls-3" d="M81.56,54.25c0,1.35,1.1,2.44,2.45,2.45h8.98c1.36,0,2.45-1.1,2.45-2.45s-1.1-2.45-2.45-2.45h-8.98c-1.36,0-2.45,1.11-2.45,2.46h0Z"/>
    <path class="cls-3" d="M92.98,62.63h-8.98c-1.36,0-2.45,1.1-2.45,2.45s1.1,2.45,2.45,2.45h8.98c1.36,0,2.45-1.1,2.45-2.45s-1.1-2.45-2.45-2.45h0Z"/>
    <path class="cls-3" d="M92.98,73.48h-8.98c-1.36,.06-2.41,1.2-2.35,2.56,.05,1.28,1.08,2.3,2.35,2.35h8.98c1.36-.06,2.41-1.2,2.35-2.56-.05-1.28-1.08-2.3-2.35-2.35Z"/>
    <path class="cls-3" d="M92.98,84.32h-8.98c-1.36,0-2.45,1.1-2.45,2.45s1.1,2.45,2.45,2.45h8.98c1.36,0,2.45-1.1,2.45-2.45s-1.1-2.45-2.45-2.45h0Z"/>
    <path class="cls-3" d="M64.5,67.54h11.16c1.27,0,2.29-1.03,2.29-2.29v-11.16c0-1.27-1.03-2.29-2.29-2.29h-11.16c-1.27,0-2.29,1.03-2.29,2.29v11.16c0,1.27,1.03,2.29,2.29,2.29Zm1.18-8.95c.59-.59,1.55-.59,2.15,0l1.13,1.13,3.37-3.35c.59-.59,1.55-.59,2.15,0,.59,.59,.59,1.55,0,2.14h0s-4.45,4.44-4.45,4.44c-.59,.59-1.55,.59-2.15,0l-2.21-2.21c-.6-.59-.6-1.55,0-2.15,0,0,0,0,.01-.01Z"/>
    <path class="cls-3" d="M64.5,89.23h11.16c1.27,0,2.29-1.03,2.29-2.29v-11.18c0-1.27-1.02-2.3-2.29-2.3,0,0,0,0,0,0h-11.16c-1.27,0-2.29,1.03-2.29,2.29,0,0,0,0,0,0v11.16c0,1.27,1.01,2.3,2.28,2.31,0,0,.01,0,.02,0Zm1.18-8.93c.59-.59,1.55-.59,2.15,0l1.13,1.14,3.37-3.35c.59-.59,1.55-.59,2.15,0,.59,.59,.59,1.55,0,2.15h0l-4.45,4.42c-.59,.59-1.55,.59-2.15,0l-2.21-2.19c-.6-.59-.6-1.55-.01-2.15,0,0,0,0,.01-.01Z"/>
    <path class="cls-3" d="M55.87,94.31V45.56c0-.86,.7-1.56,1.56-1.56h3.64v-5.67h-9.32c-.86,0-1.55,.7-1.56,1.56v60.1c0,.84,.7,1.52,1.54,1.51,0,0,0,0,.01,0h36.57l.1-1.15c.19-1.56,.6-3.08,1.21-4.52H57.43c-.85,.01-1.54-.66-1.56-1.51Z"/>
    <path class="cls-3" d="M101.76,45.56v22.83c1.71-1.15,3.64-1.92,5.67-2.26v-26.24c.02-.84-.65-1.54-1.49-1.56,0,0-.01,0-.02,0h-9.36v5.67h3.69c.84,0,1.52,.7,1.51,1.54,0,0,0,.01,0,.02Z"/>
    <path class="cls-3" d="M66.91,45.19h23.81c.59,0,1.08-.48,1.08-1.08v-6.26c0-.6-.49-1.09-1.09-1.09h-6.07v-2.72c0-2.78-1.87-5.32-4.61-5.89-3.17-.67-6.28,1.36-6.94,4.53-.08,.38-.12,.78-.13,1.17v2.93h-6.06c-.6,0-1.09,.49-1.09,1.09h0v6.24c0,.6,.5,1.08,1.09,1.08Zm11.92-13.47c1.17,0,2.13,.95,2.13,2.13s-.95,2.13-2.13,2.13-2.13-.95-2.13-2.13c0-1.17,.95-2.12,2.13-2.13Z"/>
    <path class="cls-3" d="M126.11,100.93c-.58-4.77-3.91-8.76-8.51-10.18-.45-.13-.92,.12-1.07,.56l-4.58,13.1-1.05-8.56h.7c.42,0,.76-.34,.76-.76,0,0,0,0,0,0v-2.35c0-.42-.34-.76-.76-.77,0,0,0,0,0,0h-3.84c-.42,0-.77,.34-.77,.77v2.35c0,.42,.34,.77,.77,.77h.7l-1.05,8.56-4.58-13.1c-.15-.44-.62-.68-1.07-.56-4.6,1.42-7.93,5.4-8.51,10.18l-.62,7.02c-.15,1.92,1.28,3.61,3.21,3.76,.09,0,.18,.01,.27,.01l27.09,.05c1.93,0,3.49-1.56,3.5-3.49,0-.1,0-.2-.01-.3l-.59-7.05Z"/>
    <circle class="cls-3" cx="109.71" cy="80.11" r="9.29"/>
  </g>
</svg>