<?xml version="1.0" encoding="UTF-8"?>
<svg id="Layer_1" data-name="Layer 1" xmlns="http://www.w3.org/2000/svg" xmlns:xlink="http://www.w3.org/1999/xlink" viewBox="0 0 176.91 139.79">
  <defs>
    <style>
      .cls-1 {
        fill: url(#linear-gradient);
      }

      .cls-2 {
        fill: #ed1c24;
      }

      .cls-3 {
        fill: #101b4e;
      }
    </style>
    <linearGradient id="linear-gradient" x1="38.63" y1="113.45" x2="124.98" y2="27.1" gradientUnits="userSpaceOnUse">
      <stop offset="0" stop-color="#dbdfe2"/>
      <stop offset="1" stop-color="#fff"/>
    </linearGradient>
  </defs>
  <g>
    <g>
      <g>
        <circle class="cls-2" cx="82.1" cy="70.28" r="63.71"/>
        <path class="cls-2" d="M82.1,140.17c-38.54,0-69.9-31.36-69.9-69.9S43.56,.38,82.1,.38s69.9,31.35,69.9,69.9-31.35,69.9-69.9,69.9Zm0-127.42c-31.72,0-57.52,25.8-57.52,57.52s25.8,57.52,57.52,57.52,57.52-25.8,57.52-57.52S113.82,12.76,82.1,12.76Z"/>
      </g>
      <path class="cls-3" d="M158.65,75.43c1.65,0,3.07,.6,4.27,1.79,1.19,1.19,1.79,2.61,1.79,4.26s-.59,3.07-1.79,4.27-2.61,1.79-4.27,1.79-3.07-.6-4.26-1.79c-1.19-1.19-1.79-2.61-1.79-4.27s.6-3.07,1.79-4.26c1.19-1.19,2.61-1.79,4.26-1.79Zm5.73,58.81h-11.37v-10.48l2.44-29.33h6.5l2.44,29.33v10.48Z"/>
    </g>
    <circle class="cls-1" cx="81.8" cy="70.28" r="61.05"/>
  </g>
  <g>
    <g>
      <path class="cls-3" d="M102.85,52c0,.28,.02,.57,0,.85-.47,5.24,.77,9.55,4.06,14.14,11.86,16.51,3.98,39.71-15.23,46.48-16.72,5.9-35.47-3.84-40.05-20.85-2.82-10.49-.8-20.02,6.2-28.33,1.63-1.94,2.33-3.82,2.25-6.29-.15-4.31-.15-8.63-.05-12.94,.23-9.76,7.74-18.08,17.26-20.05,10.95-2.26,22.93,4.85,25.2,17.05,.6,3.21,.09,6.62,.09,9.94,.09,0,.18,0,.27,0Zm-21.72,58.48c13.8,.34,25.63-10.66,26.6-24.32,1.11-15.57-11.04-27.64-25.02-28.27-14.63-.65-26.96,10.79-27.64,24.87-.72,14.91,11.32,27.72,26.05,27.72Zm-16.66-52.82c4.45-1.03,4.99-1.74,5.07-5.46,.06-3.02,.02-6.09,.54-9.05,.91-5.21,5.55-8.81,10.87-8.88,5.86-.08,10.78,3.28,11.81,8.56,.59,3.01,.51,6.16,.59,9.25,.11,3.98,.35,4.34,4.6,5.49,.11-.38,.32-.76,.32-1.14,0-3.88,.26-7.79-.11-11.64-.49-5.16-2.7-9.52-7.16-12.58-8.78-6.03-21.02-2.36-25.07,7.51-2.38,5.8-1.01,11.8-1.47,17.94Zm17.11-4.37c1.54,.11,3.52,.21,5.48,.41,1.12,.11,1.56-.3,1.54-1.4-.04-2.26,.02-4.53-.07-6.78-.15-3.81-3.27-6.72-7.09-6.72-3.74,0-6.97,3.02-7.1,6.74-.07,2.12,.04,4.24-.07,6.36-.08,1.57,.55,1.96,2.01,1.76,1.61-.22,3.24-.23,5.3-.36Z"/>
      <path class="cls-3" d="M81.68,105.5c-11.3,.3-21.12-8.85-21.65-19.78-.63-13,9.06-22.27,19.89-22.86,12.56-.68,22.49,8.65,22.94,20.68,.43,11.45-9.08,22.15-21.19,21.96Zm-.24-4.46c9.16-.34,16.82-7.04,16.8-16.9-.02-9.16-6.8-16.55-16.69-16.66-9.04-.1-16.61,6.63-16.95,16.45-.33,9.21,7.6,17.07,16.84,17.1Z"/>
    </g>
    <path class="cls-3" d="M83.02,92.05v1.9h-2.67v-1.89c-2.89-.33-4.78-1.77-5.07-4.45l3.22-.06c.33,1.4,1.52,2.14,3.21,2.14,1.53,0,2.62-.82,2.62-1.91s-.71-1.6-2.21-1.94l-2.51-.54c-2.34-.48-3.85-1.85-3.88-4.2-.03-2.49,1.94-4.19,4.67-4.6v-2.1h2.68v2.12c2.68,.46,4.29,2.29,4.26,4.47l-3.13,.05c-.19-1.36-.81-2.18-2.44-2.18s-2.73,.76-2.73,1.88c0,.89,.49,1.34,2.15,1.77l2.47,.6c2.79,.67,3.94,2.34,3.94,4.64s-1.77,3.92-4.6,4.29Z"/>
  </g>
</svg>