<?xml version="1.0" encoding="UTF-8"?>
<svg id="Layer_1" data-name="Layer 1" xmlns="http://www.w3.org/2000/svg" xmlns:xlink="http://www.w3.org/1999/xlink" viewBox="0 0 176.91 139.79">
  <defs>
    <style>
      .cls-1 {
        fill: url(#linear-gradient);
      }

      .cls-2 {
        fill: #ed1c24;
      }

      .cls-3 {
        fill: #101b4e;
      }
    </style>
    <linearGradient id="linear-gradient" x1="38.63" y1="113.45" x2="124.98" y2="27.1" gradientUnits="userSpaceOnUse">
      <stop offset="0" stop-color="#dbdfe2"/>
      <stop offset="1" stop-color="#fff"/>
    </linearGradient>
  </defs>
  <g>
    <g>
      <g>
        <circle class="cls-2" cx="82.1" cy="70.28" r="63.71"/>
        <path class="cls-2" d="M82.1,140.17c-38.54,0-69.9-31.36-69.9-69.9S43.56,.38,82.1,.38s69.9,31.35,69.9,69.9-31.35,69.9-69.9,69.9Zm0-127.42c-31.72,0-57.52,25.8-57.52,57.52s25.8,57.52,57.52,57.52,57.52-25.8,57.52-57.52S113.82,12.76,82.1,12.76Z"/>
      </g>
      <path class="cls-3" d="M158.65,75.43c1.65,0,3.07,.6,4.27,1.79,1.19,1.19,1.79,2.61,1.79,4.26s-.59,3.07-1.79,4.27-2.61,1.79-4.27,1.79-3.07-.6-4.26-1.79c-1.19-1.19-1.79-2.61-1.79-4.27s.6-3.07,1.79-4.26c1.19-1.19,2.61-1.79,4.26-1.79Zm5.73,58.81h-11.37v-10.48l2.44-29.33h6.5l2.44,29.33v10.48Z"/>
    </g>
    <circle class="cls-1" cx="81.8" cy="70.28" r="61.05"/>
  </g>
  <g>
    <path class="cls-3" d="M68.57,81.22c0,1.55,1.26,2.81,2.81,2.81h17.23c.03-.28,.08-.56,.14-.87l1.15-4.75h-18.52c-1.55,0-2.81,1.26-2.81,2.81Z"/>
    <path class="cls-3" d="M105.72,85.4v6.86H60.33V34.17h45.39v22.54l4.17-4.91c.42-.51,.91-.95,1.46-1.32V30.74c-.01-1.21-.99-2.18-2.2-2.17H56.91c-1.21,0-2.19,.98-2.19,2.19v11.12h-11.14c-1.21,0-2.2,.98-2.2,2.2h0V109.03c0,1.21,.99,2.19,2.2,2.19h52.24c1.21,0,2.19-.98,2.19-2.19h0v-11.14h11.14c1.21,0,2.19-.98,2.19-2.19h0v-16.55l-3.9,4.61c-.51,.61-1.09,1.16-1.72,1.65Zm-13.34,20.19H47V47.51h7.71v48.18c0,1.21,.98,2.19,2.19,2.2,0,0,0,0,0,0h35.48v7.71Z"/>
    <path class="cls-3" d="M93.13,84.23c-.18,.74,.27,1.48,1,1.66,.29,.07,.6,.05,.87-.07l5.47-2.35c1.04-.47,1.99-1.12,2.8-1.93l-7.3-6.17c-.66,.93-1.15,1.98-1.44,3.08l-1.41,5.78Z"/>
    <path class="cls-3" d="M120.43,56.66l-2.74-2.31c-1.31-1.1-3.26-.94-4.37,.37l-14.53,17.15,7.47,6.32,14.53-17.15c1.11-1.31,.94-3.27-.37-4.38,0,0,0,0,0,0Z"/>
    <path class="cls-3" d="M83.02,41.72c-8.05,.01-14.56,6.54-14.55,14.59,.01,8.05,6.54,14.56,14.59,14.55,8.03-.01,14.54-6.52,14.55-14.55,0-8.06-6.53-14.59-14.59-14.59h0Zm6.83,12.92l-7.2,7.21c-.89,.89-2.33,.89-3.23,0l-3.58-3.58c-.86-.92-.81-2.37,.11-3.23,.88-.82,2.24-.82,3.11,0l1.96,1.97,5.58-5.59c.92-.86,2.37-.81,3.23,.11,.82,.88,.82,2.24,0,3.11h0Z"/>
  </g>
</svg>