<?xml version="1.0" encoding="UTF-8"?>
<svg id="Layer_1" data-name="Layer 1" xmlns="http://www.w3.org/2000/svg" xmlns:xlink="http://www.w3.org/1999/xlink" viewBox="0 0 176.91 139.79">
  <defs>
    <style>
      .cls-1 {
        fill: none;
      }

      .cls-2 {
        fill: url(#linear-gradient);
      }

      .cls-3 {
        clip-path: url(#clippath);
      }

      .cls-4 {
        fill: #ed1c24;
      }

      .cls-5 {
        fill: #101b4e;
      }

      .cls-6 {
        fill: #1c5dff;
      }
    </style>
    <linearGradient id="linear-gradient" x1="45.36" y1="113.07" x2="131.71" y2="26.72" gradientUnits="userSpaceOnUse">
      <stop offset="0" stop-color="#dbdfe2"/>
      <stop offset="1" stop-color="#fff"/>
    </linearGradient>
    <clipPath id="clippath">
      <path class="cls-1" d="M77.59,28.73h54.6V101.19h-35v-32.98c0-4.79-3.43-8.8-7.97-9.69-.19-2.58-2.35-4.62-4.97-4.62h-1.7c-2.56,0-4.68,1.94-4.96,4.43V28.73Z"/>
    </clipPath>
  </defs>
  <g>
    <g>
      <path class="cls-6" d="M117.48,119.93c16.59-10.47,26.71-25.17,28.28-44.72,1.9-23.67-7.73-42.13-27.77-54.85-10.67-6.77-22.57-9.2-35.15-7.99-12.55,1.21-23.49,6.17-32.97,14.54-2.67-2.98-5.32-5.93-8.09-9.03C59.72,2.66,80.15-3.19,103.19,1.67c27.53,5.8,47.45,27.43,53.14,52.49,3.4,14.96,2.12,29.55-4,43.61-6.12,14.06-15.97,24.89-29.19,32.74"/>
      <path class="cls-6" d="M41.35,36.53c-4.6,6.57-7.71,13.67-9.38,21.48-3.9-1.05-7.71-2.08-11.63-3.14,2.04-9.2,5.76-17.57,11.19-25.3,3.29,2.33,6.52,4.62,9.82,6.96Z"/>
      <path class="cls-6" d="M34.78,91.7c1.45,2.74,2.74,5.44,4.28,7.99,1.54,2.55,3.32,4.95,5.06,7.5-2.89,2.53-5.86,5.13-8.93,7.8-.8-1-1.58-1.92-2.31-2.89-2.97-3.95-5.52-8.16-7.64-12.62-.32-.66-.28-.98,.37-1.42,3.11-2.1,6.17-4.28,9.17-6.37Z"/>
      <path class="cls-6" d="M21.35,88.94c-2.02-7.07-2.8-14.14-2.58-21.45,4.02,.15,7.96,.29,12.01,.44,0,1.41-.03,2.74,0,4.07,.09,3.66,.59,7.26,1.44,10.82,.15,.62,.05,.88-.55,1.16-3.42,1.61-6.82,3.28-10.32,4.97Z"/>
      <path class="cls-6" d="M46.59,125.76c2.37-3.29,4.68-6.5,7.03-9.77,4.39,3.31,9.09,5.93,14.22,7.93-1.51,3.74-2.99,7.42-4.5,11.17-6.02-2.35-11.55-5.41-16.74-9.34Z"/>
      <path class="cls-6" d="M76.25,138.74c.75-4.01,1.48-7.89,2.22-11.82,1.44,.17,2.84,.4,4.25,.49,2.42,.15,4.84,.24,7.26,.3,.58,.01,.84,.15,1.02,.72,1.14,3.66,2.33,7.31,3.54,11.05-6.14,.55-12.17,.27-18.28-.75Z"/>
    </g>
    <g>
      <path class="cls-4" d="M88.62,12.38c-31.72,0-57.52,25.8-57.52,57.52s25.8,57.52,57.52,57.52,57.52-25.8,57.52-57.52S120.34,12.38,88.62,12.38Z"/>
      <circle class="cls-2" cx="88.53" cy="69.9" r="61.05"/>
    </g>
    <path class="cls-6" d="M123.49,131.08c1.65,3.08,3.27,5.53,4.97,8.71-9.56-2.29-19.01-3.96-28.59-6.25,4.57-7,9.07-13.89,13.69-20.97,1.44,2.68,2.8,5.2,4.25,7.88"/>
  </g>
  <g>
    <g>
      <path class="cls-5" d="M84.5,56.94c1.08,0,1.96,.88,1.96,1.96v2.47h1.11c3.78,0,6.85,3.07,6.85,6.85v32.98c0,3.78-3.07,6.85-6.85,6.85H54.59c-3.78,0-6.85-3.07-6.85-6.85v-32.98c0-3.78,3.07-6.85,6.85-6.85h1.49v-2.47c0-1.08,.88-1.96,1.96-1.96h1.7c1.08,0,1.96,.88,1.96,1.96v2.47h6.57v-2.47c0-1.08,.88-1.96,1.96-1.96h1.7c1.08,0,1.96,.88,1.96,1.96v2.47h6.95v-2.47c0-1.08,.88-1.96,1.96-1.96h1.7m0-3.03h-1.7c-2.56,0-4.68,1.94-4.96,4.43h-.96c-.28-2.49-2.39-4.43-4.96-4.43h-1.7c-2.56,0-4.68,1.94-4.96,4.43h-.58c-.28-2.49-2.39-4.43-4.96-4.43h-1.7c-2.6,0-4.75,2-4.97,4.55-4.73,.73-8.36,4.83-8.36,9.76v32.98c0,5.44,4.43,9.87,9.87,9.87h32.98c5.44,0,9.87-4.43,9.87-9.87v-32.98c0-4.79-3.43-8.8-7.97-9.69-.19-2.58-2.35-4.62-4.97-4.62h0Z"/>
      <rect class="cls-5" x="51.64" y="70.47" width="11.38" height="5.21" rx="1.86" ry="1.86"/>
      <rect class="cls-5" x="65.51" y="70.47" width="11.38" height="5.21" rx="1.86" ry="1.86"/>
      <rect class="cls-5" x="79.29" y="70.47" width="11.38" height="5.21" rx="1.86" ry="1.86"/>
      <rect class="cls-5" x="51.64" y="78.75" width="11.38" height="5.21" rx="1.86" ry="1.86"/>
      <rect class="cls-5" x="65.51" y="78.75" width="11.38" height="5.21" rx="1.86" ry="1.86"/>
      <rect class="cls-5" x="79.29" y="78.75" width="11.38" height="5.21" rx="1.86" ry="1.86"/>
      <rect class="cls-5" x="51.64" y="85.93" width="11.38" height="5.21" rx="1.86" ry="1.86"/>
      <rect class="cls-5" x="65.51" y="85.93" width="11.38" height="5.21" rx="1.86" ry="1.86"/>
      <rect class="cls-5" x="79.29" y="85.93" width="11.38" height="5.21" rx="1.86" ry="1.86"/>
      <rect class="cls-5" x="51.64" y="94.21" width="11.38" height="5.21" rx="1.86" ry="1.86"/>
      <rect class="cls-5" x="65.51" y="94.21" width="11.38" height="5.21" rx="1.86" ry="1.86"/>
      <rect class="cls-5" x="79.29" y="94.21" width="11.38" height="5.21" rx="1.86" ry="1.86"/>
    </g>
    <g class="cls-3">
      <g>
        <path class="cls-5" d="M117.87,75.61v5.19h-34.34V36.85h34.34v17.05l3.15-3.72c.32-.38,.69-.72,1.1-1v-14.93c0-.91-.75-1.65-1.67-1.64h-39.52c-.92,0-1.66,.74-1.66,1.66v50.78h41.18c.92,0,1.66-.74,1.66-1.66h0v-12.52l-2.95,3.49c-.39,.46-.82,.88-1.3,1.25Z"/>
        <path class="cls-5" d="M109.1,75.97c.22,.05,.45,.04,.66-.05l4.14-1.78c.79-.36,1.51-.85,2.12-1.46l-5.52-4.67c-.5,.71-.87,1.5-1.09,2.33l-1.07,4.37c-.14,.56,.2,1.12,.76,1.26Z"/>
        <path class="cls-5" d="M129,53.86s0,0,0,0l-2.07-1.75c-.99-.84-2.47-.71-3.31,.28l-10.99,12.97,5.65,4.78,10.99-12.97c.84-.99,.71-2.47-.28-3.31Z"/>
        <path class="cls-5" d="M86.42,73.74c0,1.17,.95,2.12,2.13,2.13h15.85l.98-4.25h-16.83c-1.17,0-2.12,.95-2.13,2.13Z"/>
        <path class="cls-5" d="M109.4,63.21h-20.85c-1.17,0-2.12,.95-2.13,2.13,0,1.17,.95,2.12,2.13,2.13h19.87l.98-4.25Z"/>
        <path class="cls-5" d="M115.4,57.31c0-1.17-.95-2.12-2.13-2.13h-24.76c-1.17,0-2.12,.95-2.13,2.13,0,1.17,.95,2.12,2.13,2.13h24.76c1.17,0,2.12-.95,2.13-2.13Z"/>
        <path class="cls-5" d="M113.27,47.15h-24.76c-1.17,0-2.12,.95-2.13,2.13,0,1.17,.95,2.12,2.13,2.13h24.76c1.17,0,2.12-.95,2.13-2.13,0-1.17-.95-2.12-2.13-2.13Z"/>
        <path class="cls-5" d="M113.27,39.45h-24.76c-1.17,0-2.12,.95-2.13,2.13,0,1.17,.95,2.12,2.13,2.13h24.76c1.17,0,2.12-.95,2.13-2.13,0-1.17-.95-2.12-2.13-2.13Z"/>
      </g>
    </g>
  </g>
</svg>