<?xml version="1.0" encoding="UTF-8"?>
<svg id="Layer_1" data-name="Layer 1" xmlns="http://www.w3.org/2000/svg" xmlns:xlink="http://www.w3.org/1999/xlink" viewBox="0 0 176.91 139.79">
  <defs>
    <style>
      .cls-1 {
        fill: url(#linear-gradient);
      }

      .cls-2 {
        fill: #ed1c24;
      }

      .cls-3 {
        fill: #101b4e;
      }

      .cls-4 {
        fill: #1c5dff;
      }
    </style>
    <linearGradient id="linear-gradient" x1="45.36" y1="113.07" x2="131.71" y2="26.72" gradientUnits="userSpaceOnUse">
      <stop offset="0" stop-color="#dbdfe2"/>
      <stop offset="1" stop-color="#fff"/>
    </linearGradient>
  </defs>
  <g>
    <g>
      <path class="cls-4" d="M117.48,119.93c16.59-10.47,26.71-25.17,28.28-44.72,1.9-23.67-7.73-42.13-27.77-54.85-10.67-6.77-22.57-9.2-35.15-7.99-12.55,1.21-23.49,6.17-32.97,14.54-2.67-2.98-5.32-5.93-8.09-9.03C59.72,2.66,80.15-3.19,103.19,1.67c27.53,5.8,47.45,27.43,53.14,52.49,3.4,14.96,2.12,29.55-4,43.61-6.12,14.06-15.97,24.89-29.19,32.74"/>
      <path class="cls-4" d="M41.35,36.53c-4.6,6.57-7.71,13.67-9.38,21.48-3.9-1.05-7.71-2.08-11.63-3.14,2.04-9.2,5.76-17.57,11.19-25.3,3.29,2.33,6.52,4.62,9.82,6.96Z"/>
      <path class="cls-4" d="M34.78,91.7c1.45,2.74,2.74,5.44,4.28,7.99,1.54,2.55,3.32,4.95,5.06,7.5-2.89,2.53-5.86,5.13-8.93,7.8-.8-1-1.58-1.92-2.31-2.89-2.97-3.95-5.52-8.16-7.64-12.62-.32-.66-.28-.98,.37-1.42,3.11-2.1,6.17-4.28,9.17-6.37Z"/>
      <path class="cls-4" d="M21.35,88.94c-2.02-7.07-2.8-14.14-2.58-21.45,4.02,.15,7.96,.29,12.01,.44,0,1.41-.03,2.74,0,4.07,.09,3.66,.59,7.26,1.44,10.82,.15,.62,.05,.88-.55,1.16-3.42,1.61-6.82,3.28-10.32,4.97Z"/>
      <path class="cls-4" d="M46.59,125.76c2.37-3.29,4.68-6.5,7.03-9.77,4.39,3.31,9.09,5.93,14.22,7.93-1.51,3.74-2.99,7.42-4.5,11.17-6.02-2.35-11.55-5.41-16.74-9.34Z"/>
      <path class="cls-4" d="M76.25,138.74c.75-4.01,1.48-7.89,2.22-11.82,1.44,.17,2.84,.4,4.25,.49,2.42,.15,4.84,.24,7.26,.3,.58,.01,.84,.15,1.02,.72,1.14,3.66,2.33,7.31,3.54,11.05-6.14,.55-12.17,.27-18.28-.75Z"/>
    </g>
    <g>
      <path class="cls-2" d="M88.62,12.38c-31.72,0-57.52,25.8-57.52,57.52s25.8,57.52,57.52,57.52,57.52-25.8,57.52-57.52S120.34,12.38,88.62,12.38Z"/>
      <circle class="cls-1" cx="88.53" cy="69.9" r="61.05"/>
    </g>
    <path class="cls-4" d="M123.49,131.08c1.65,3.08,3.27,5.53,4.97,8.71-9.56-2.29-19.01-3.96-28.59-6.25,4.57-7,9.07-13.89,13.69-20.97,1.44,2.68,2.8,5.2,4.25,7.88"/>
  </g>
  <g>
    <g>
      <path class="cls-3" d="M109.85,52c0,.28,.02,.57,0,.85-.47,5.24,.77,9.55,4.06,14.14,11.86,16.51,3.98,39.71-15.23,46.48-16.72,5.9-35.47-3.84-40.05-20.85-2.82-10.49-.8-20.02,6.2-28.33,1.63-1.94,2.33-3.82,2.25-6.29-.15-4.31-.15-8.63-.05-12.94,.23-9.76,7.74-18.08,17.26-20.05,10.95-2.26,22.93,4.85,25.2,17.05,.6,3.21,.09,6.62,.09,9.94,.09,0,.18,0,.27,0Zm-21.72,58.48c13.8,.34,25.63-10.66,26.6-24.32,1.11-15.57-11.04-27.64-25.02-28.27-14.63-.65-26.96,10.79-27.64,24.87-.72,14.91,11.32,27.72,26.05,27.72Zm-16.66-52.82c4.45-1.03,4.99-1.74,5.07-5.46,.06-3.02,.02-6.09,.54-9.05,.91-5.21,5.55-8.81,10.87-8.88,5.86-.08,10.78,3.28,11.81,8.56,.59,3.01,.51,6.16,.59,9.25,.11,3.98,.35,4.34,4.6,5.49,.11-.38,.32-.76,.32-1.14,0-3.88,.26-7.79-.11-11.64-.49-5.16-2.7-9.52-7.16-12.58-8.78-6.03-21.02-2.36-25.07,7.51-2.38,5.8-1.01,11.8-1.47,17.94Zm17.11-4.37c1.54,.11,3.52,.21,5.48,.41,1.12,.11,1.56-.3,1.54-1.4-.04-2.26,.02-4.53-.07-6.78-.15-3.81-3.27-6.72-7.09-6.72-3.74,0-6.97,3.02-7.1,6.74-.07,2.12,.04,4.24-.07,6.36-.08,1.57,.55,1.96,2.01,1.76,1.61-.22,3.24-.23,5.3-.36Z"/>
      <path class="cls-3" d="M88.68,105.5c-11.3,.3-21.12-8.85-21.65-19.78-.63-13,9.06-22.27,19.89-22.86,12.56-.68,22.49,8.65,22.94,20.68,.43,11.45-9.08,22.15-21.19,21.96Zm-.24-4.46c9.16-.34,16.82-7.04,16.8-16.9-.02-9.16-6.8-16.55-16.69-16.66-9.04-.1-16.61,6.63-16.95,16.45-.33,9.21,7.6,17.07,16.84,17.1Z"/>
    </g>
    <path class="cls-3" d="M90.02,92.05v1.9h-2.67v-1.89c-2.89-.33-4.78-1.77-5.07-4.45l3.22-.06c.33,1.4,1.52,2.14,3.21,2.14,1.53,0,2.62-.82,2.62-1.91s-.71-1.6-2.21-1.94l-2.51-.54c-2.34-.48-3.85-1.85-3.88-4.2-.03-2.49,1.94-4.19,4.67-4.6v-2.1h2.68v2.12c2.68,.46,4.29,2.29,4.26,4.47l-3.13,.05c-.19-1.36-.81-2.18-2.44-2.18s-2.73,.76-2.73,1.88c0,.89,.49,1.34,2.15,1.77l2.47,.6c2.79,.67,3.94,2.34,3.94,4.64s-1.77,3.92-4.6,4.29Z"/>
  </g>
</svg>