<?xml version="1.0" encoding="UTF-8"?>
<svg id="Layer_1" data-name="Layer 1" xmlns="http://www.w3.org/2000/svg" xmlns:xlink="http://www.w3.org/1999/xlink" viewBox="0 0 176.91 139.79">
  <defs>
    <style>
      .cls-1 {
        fill: url(#linear-gradient);
      }

      .cls-2 {
        fill: #ed1c24;
      }

      .cls-3, .cls-4 {
        fill: #101b4e;
      }

      .cls-4 {
        stroke: #101b4e;
        stroke-miterlimit: 10;
      }
    </style>
    <linearGradient id="linear-gradient" x1="26.63" y1="113.07" x2="112.98" y2="26.72" gradientUnits="userSpaceOnUse">
      <stop offset="0" stop-color="#dbdfe2"/>
      <stop offset="1" stop-color="#fff"/>
    </linearGradient>
  </defs>
  <g>
    <g>
      <g>
        <path class="cls-3" d="M153.3,137.5c-6.27,0-12.18-2.46-16.63-6.94-4.45-4.47-6.89-10.37-6.86-16.62,.05-12.89,10.59-23.35,23.51-23.35h.05c12.93,.02,23.45,10.56,23.44,23.48-.01,12.92-10.55,23.43-23.49,23.43h0Zm.01-42.78c-10.65,0-19.34,8.63-19.38,19.25-.02,5.14,1.99,10.01,5.66,13.69,3.68,3.69,8.55,5.72,13.71,5.72h0c10.67,0,19.36-8.66,19.37-19.31,.01-10.65-8.66-19.33-19.32-19.35h-.04Z"/>
        <path class="cls-3" d="M148.29,114.16c-2.35-2.33-4.58-4.55-6.7-6.66,1.73-1.74,3.36-3.37,4.98-5,2.07,2.08,4.3,4.34,6.61,6.67,2.43-2.43,4.65-4.66,6.78-6.79,1.68,1.67,3.32,3.3,4.98,4.96-2.11,2.1-4.37,4.34-6.73,6.68,2.38,2.37,4.61,4.59,6.76,6.72-1.64,1.64-3.28,3.27-4.97,4.96-2.08-2.13-4.28-4.39-6.55-6.72-2.39,2.4-4.63,4.65-6.79,6.81-1.75-1.75-3.39-3.38-5.04-5.03,2.17-2.15,4.41-4.37,6.67-6.61Z"/>
      </g>
      <g>
        <circle class="cls-2" cx="70" cy="69.9" r="63.71"/>
        <path class="cls-2" d="M70,139.79C31.46,139.79,.11,108.44,.11,69.9S31.46,0,70,0s69.9,31.35,69.9,69.9-31.36,69.9-69.9,69.9Zm0-127.42c-31.72,0-57.52,25.8-57.52,57.52s25.8,57.52,57.52,57.52,57.52-25.8,57.52-57.52S101.72,12.38,70,12.38Z"/>
      </g>
    </g>
    <circle class="cls-1" cx="69.8" cy="69.9" r="61.05"/>
  </g>
  <g>
    <path class="cls-4" d="M81.07,44.95l-.28-.11-.28,.11c-.99,.45-2.07,.68-3.15,.66h-20.6l.28,.92c1.18,4.17-1.25,8.51-5.42,9.69-.68,.19-1.39,.29-2.1,.29-1.07,.01-2.14-.22-3.12-.66l-.6-.28-.32,.56c-7.81,13.26-3.39,30.35,9.88,38.15,.56,.33,1.13,.64,1.72,.93l.35,.14,.32-.17c1.16-.68,2.48-1.03,3.82-1.02h20.6l-.28-.88c-1.2-4.14,1.19-8.48,5.33-9.68,1.87-.54,3.87-.37,5.62,.49l.6,.32,.35-.6c7.47-13.48,2.6-30.47-10.88-37.95-.6-.33-1.21-.64-1.84-.93h.02Zm-9.25,37.78v2.91c-.02,.47-.41,.83-.88,.84h-3.01c-.46,0-.84-.38-.84-.84v-2.84c-3.11-.27-5.59-2.73-5.89-5.84-.02-.23,.06-.46,.21-.63,.16-.18,.39-.28,.63-.28h3.05c.39-.01,.74,.25,.84,.63,.18,.85,.92,1.46,1.79,1.47h2.69c1.54,.1,2.86-1.07,2.96-2.61,.05-.75-.21-1.49-.71-2.04-.53-.58-1.28-.91-2.07-.92h-1.96c-4,0-7.43-2.94-7.79-6.73-.4-3.93,2.33-7.49,6.23-8.12v-2.83c0-.47,.37-.87,.84-.88h3.01c.48,0,.87,.39,.88,.88v2.8c3.11,.29,5.59,2.74,5.9,5.85,.03,.23-.06,.45-.24,.6-.15,.19-.39,.3-.63,.28h-3.05c-.38,.01-.72-.25-.81-.63-.19-.86-.95-1.48-1.83-1.48h-2.66c-1.47-.04-2.73,1.03-2.94,2.49-.07,.79,.18,1.58,.71,2.17,.52,.57,1.26,.9,2.03,.92h2.31c2.12,.02,4.13,.91,5.58,2.46,1.43,1.57,2.12,3.67,1.89,5.78-.32,3.24-2.87,5.91-6.24,6.59Z"/>
    <path class="cls-3" d="M49.52,51.52c-.76,0-1.48-.3-2.01-.83l-10.88-10.88c-1.11-1.11-1.11-2.9,0-4.01,0,0,0,0,0,0l10.88-10.88c1.11-1.11,2.91-1.11,4.02,0,1.11,1.11,1.11,2.91,0,4.02l-6.02,6.03h31.86c1.57,.06,2.79,1.39,2.73,2.96-.06,1.48-1.25,2.67-2.73,2.73h-31.86l6.03,6.03c1.1,1.11,1.1,2.91,0,4.02-.53,.54-1.26,.84-2.01,.83Z"/>
    <path class="cls-3" d="M89.39,115.72c-1.57,0-2.84-1.27-2.84-2.84h0c0-.76,.3-1.48,.83-2.01l6.02-6.03h-31.86c-1.57-.06-2.79-1.39-2.73-2.96,.06-1.48,1.25-2.67,2.73-2.73h31.86l-6.03-6.03c-1.11-1.11-1.11-2.91,0-4.02,1.11-1.11,2.91-1.11,4.03,0l10.87,10.88c1.11,1.11,1.11,2.9,0,4.01,0,0,0,0,0,0l-10.88,10.88c-.53,.54-1.26,.84-2.01,.83Z"/>
  </g>
</svg>