<?xml version="1.0" encoding="UTF-8"?>
<svg id="Layer_1" data-name="Layer 1" xmlns="http://www.w3.org/2000/svg" xmlns:xlink="http://www.w3.org/1999/xlink" viewBox="0 0 176.91 139.79">
  <defs>
    <style>
      .cls-1 {
        fill: url(#linear-gradient);
      }

      .cls-2 {
        fill: #ed1c24;
      }

      .cls-3 {
        fill: #101b4e;
      }
    </style>
    <linearGradient id="linear-gradient" x1="26.63" y1="113.07" x2="112.98" y2="26.72" gradientUnits="userSpaceOnUse">
      <stop offset="0" stop-color="#dbdfe2"/>
      <stop offset="1" stop-color="#fff"/>
    </linearGradient>
  </defs>
  <g>
    <g>
      <g>
        <path class="cls-3" d="M153.3,137.5c-6.27,0-12.18-2.46-16.63-6.94-4.45-4.47-6.89-10.37-6.86-16.62,.05-12.89,10.59-23.35,23.51-23.35h.05c12.93,.02,23.45,10.56,23.44,23.48-.01,12.92-10.55,23.43-23.49,23.43h0Zm.01-42.78c-10.65,0-19.34,8.63-19.38,19.25-.02,5.14,1.99,10.01,5.66,13.69,3.68,3.69,8.55,5.72,13.71,5.72h0c10.67,0,19.36-8.66,19.37-19.31,.01-10.65-8.66-19.33-19.32-19.35h-.04Z"/>
        <path class="cls-3" d="M148.29,114.16c-2.35-2.33-4.58-4.55-6.7-6.66,1.73-1.74,3.36-3.37,4.98-5,2.07,2.08,4.3,4.34,6.61,6.67,2.43-2.43,4.65-4.66,6.78-6.79,1.68,1.67,3.32,3.3,4.98,4.96-2.11,2.1-4.37,4.34-6.73,6.68,2.38,2.37,4.61,4.59,6.76,6.72-1.64,1.64-3.28,3.27-4.97,4.96-2.08-2.13-4.28-4.39-6.55-6.72-2.39,2.4-4.63,4.65-6.79,6.81-1.75-1.75-3.39-3.38-5.04-5.03,2.17-2.15,4.41-4.37,6.67-6.61Z"/>
      </g>
      <g>
        <circle class="cls-2" cx="70" cy="69.9" r="63.71"/>
        <path class="cls-2" d="M70,139.79C31.46,139.79,.11,108.44,.11,69.9S31.46,0,70,0s69.9,31.35,69.9,69.9-31.36,69.9-69.9,69.9Zm0-127.42c-31.72,0-57.52,25.8-57.52,57.52s25.8,57.52,57.52,57.52,57.52-25.8,57.52-57.52S101.72,12.38,70,12.38Z"/>
      </g>
    </g>
    <circle class="cls-1" cx="69.8" cy="69.9" r="61.05"/>
  </g>
  <g>
    <g>
      <path class="cls-3" d="M90.85,52c0,.28,.02,.57,0,.85-.47,5.24,.77,9.55,4.06,14.14,11.86,16.51,3.98,39.71-15.23,46.48-16.72,5.9-35.47-3.84-40.05-20.85-2.82-10.49-.8-20.02,6.2-28.33,1.63-1.94,2.33-3.82,2.25-6.29-.15-4.31-.15-8.63-.05-12.94,.23-9.76,7.74-18.08,17.26-20.05,10.95-2.26,22.93,4.85,25.2,17.05,.6,3.21,.09,6.62,.09,9.94,.09,0,.18,0,.27,0Zm-21.72,58.48c13.8,.34,25.63-10.66,26.6-24.32,1.11-15.57-11.04-27.64-25.02-28.27-14.63-.65-26.96,10.79-27.64,24.87-.72,14.91,11.32,27.72,26.05,27.72Zm-16.66-52.82c4.45-1.03,4.99-1.74,5.07-5.46,.06-3.02,.02-6.09,.54-9.05,.91-5.21,5.55-8.81,10.87-8.88,5.86-.08,10.78,3.28,11.81,8.56,.59,3.01,.51,6.16,.59,9.25,.11,3.98,.35,4.34,4.6,5.49,.11-.38,.32-.76,.32-1.14,0-3.88,.26-7.79-.11-11.64-.49-5.16-2.7-9.52-7.16-12.58-8.78-6.03-21.02-2.36-25.07,7.51-2.38,5.8-1.01,11.8-1.47,17.94Zm17.11-4.37c1.54,.11,3.52,.21,5.48,.41,1.12,.11,1.56-.3,1.54-1.4-.04-2.26,.02-4.53-.07-6.78-.15-3.81-3.27-6.72-7.09-6.72-3.74,0-6.97,3.02-7.1,6.74-.07,2.12,.04,4.24-.07,6.36-.08,1.57,.55,1.96,2.01,1.76,1.61-.22,3.24-.23,5.3-.36Z"/>
      <path class="cls-3" d="M69.68,105.5c-11.3,.3-21.12-8.85-21.65-19.78-.63-13,9.06-22.27,19.89-22.86,12.56-.68,22.49,8.65,22.94,20.68,.43,11.45-9.08,22.15-21.19,21.96Zm-.24-4.46c9.16-.34,16.82-7.04,16.8-16.9-.02-9.16-6.8-16.55-16.69-16.66-9.04-.1-16.61,6.63-16.95,16.45-.33,9.21,7.6,17.07,16.84,17.1Z"/>
    </g>
    <path class="cls-3" d="M71.02,92.05v1.9h-2.67v-1.89c-2.89-.33-4.78-1.77-5.07-4.45l3.22-.06c.33,1.4,1.52,2.14,3.21,2.14,1.53,0,2.62-.82,2.62-1.91s-.71-1.6-2.21-1.94l-2.51-.54c-2.34-.48-3.85-1.85-3.88-4.2-.03-2.49,1.94-4.19,4.67-4.6v-2.1h2.68v2.12c2.68,.46,4.29,2.29,4.26,4.47l-3.13,.05c-.19-1.36-.81-2.18-2.44-2.18s-2.73,.76-2.73,1.88c0,.89,.49,1.34,2.15,1.77l2.47,.6c2.79,.67,3.94,2.34,3.94,4.64s-1.77,3.92-4.6,4.29Z"/>
  </g>
</svg>