<?xml version="1.0" encoding="UTF-8"?>
<svg id="Layer_1" data-name="Layer 1" xmlns="http://www.w3.org/2000/svg" xmlns:xlink="http://www.w3.org/1999/xlink" viewBox="0 0 176.91 139.79">
  <defs>
    <style>
      .cls-1 {
        fill: url(#linear-gradient);
      }

      .cls-2 {
        fill: #ed1c24;
      }

      .cls-3 {
        fill: #101b4e;
      }

      .cls-4 {
        fill: #1c5dff;
      }
    </style>
    <linearGradient id="linear-gradient" x1="45.36" y1="113.07" x2="131.71" y2="26.72" gradientUnits="userSpaceOnUse">
      <stop offset="0" stop-color="#dbdfe2"/>
      <stop offset="1" stop-color="#fff"/>
    </linearGradient>
  </defs>
  <g>
    <g>
      <path class="cls-4" d="M117.48,119.93c16.59-10.47,26.71-25.17,28.28-44.72,1.9-23.67-7.73-42.13-27.77-54.85-10.67-6.77-22.57-9.2-35.15-7.99-12.55,1.21-23.49,6.17-32.97,14.54-2.67-2.98-5.32-5.93-8.09-9.03C59.72,2.66,80.15-3.19,103.19,1.67c27.53,5.8,47.45,27.43,53.14,52.49,3.4,14.96,2.12,29.55-4,43.61-6.12,14.06-15.97,24.89-29.19,32.74"/>
      <path class="cls-4" d="M41.35,36.53c-4.6,6.57-7.71,13.67-9.38,21.48-3.9-1.05-7.71-2.08-11.63-3.14,2.04-9.2,5.76-17.57,11.19-25.3,3.29,2.33,6.52,4.62,9.82,6.96Z"/>
      <path class="cls-4" d="M34.78,91.7c1.45,2.74,2.74,5.44,4.28,7.99,1.54,2.55,3.32,4.95,5.06,7.5-2.89,2.53-5.86,5.13-8.93,7.8-.8-1-1.58-1.92-2.31-2.89-2.97-3.95-5.52-8.16-7.64-12.62-.32-.66-.28-.98,.37-1.42,3.11-2.1,6.17-4.28,9.17-6.37Z"/>
      <path class="cls-4" d="M21.35,88.94c-2.02-7.07-2.8-14.14-2.58-21.45,4.02,.15,7.96,.29,12.01,.44,0,1.41-.03,2.74,0,4.07,.09,3.66,.59,7.26,1.44,10.82,.15,.62,.05,.88-.55,1.16-3.42,1.61-6.82,3.28-10.32,4.97Z"/>
      <path class="cls-4" d="M46.59,125.76c2.37-3.29,4.68-6.5,7.03-9.77,4.39,3.31,9.09,5.93,14.22,7.93-1.51,3.74-2.99,7.42-4.5,11.17-6.02-2.35-11.55-5.41-16.74-9.34Z"/>
      <path class="cls-4" d="M76.25,138.74c.75-4.01,1.48-7.89,2.22-11.82,1.44,.17,2.84,.4,4.25,.49,2.42,.15,4.84,.24,7.26,.3,.58,.01,.84,.15,1.02,.72,1.14,3.66,2.33,7.31,3.54,11.05-6.14,.55-12.17,.27-18.28-.75Z"/>
    </g>
    <g>
      <path class="cls-2" d="M88.62,12.38c-31.72,0-57.52,25.8-57.52,57.52s25.8,57.52,57.52,57.52,57.52-25.8,57.52-57.52S120.34,12.38,88.62,12.38Z"/>
      <circle class="cls-1" cx="88.53" cy="69.9" r="61.05"/>
    </g>
    <path class="cls-4" d="M123.49,131.08c1.65,3.08,3.27,5.53,4.97,8.71-9.56-2.29-19.01-3.96-28.59-6.25,4.57-7,9.07-13.89,13.69-20.97,1.44,2.68,2.8,5.2,4.25,7.88"/>
  </g>
  <g>
    <path class="cls-3" d="M115.41,27.87h-12.59c-1.62,0-2.94,1.32-2.94,2.94s1.32,2.94,2.94,2.94h5.49l-16.97,16.97-13.53-13.52c-1.15-1.15-3.01-1.15-4.16,0l-18.43,18.43c-1.15,1.15-1.15,3.01,0,4.16,.57,.57,1.33,.86,2.08,.86s1.5-.29,2.08-.86l16.35-16.35,13.53,13.52c1.15,1.15,3.01,1.15,4.16,0l19.05-19.05v5.49c0,1.63,1.32,2.94,2.94,2.94s2.94-1.32,2.94-2.94v-12.59c0-1.63-1.32-2.94-2.94-2.94Z"/>
    <path class="cls-3" d="M55.87,68.76h9.07c.6,0,1.09,.49,1.09,1.09v11.84c0,.6-.49,1.09-1.09,1.09h-9.07c-.6,0-1.09-.49-1.09-1.09v-11.84c0-.6,.49-1.09,1.09-1.09Z"/>
    <path class="cls-3" d="M83.15,61.02c0-.59-.47-1.09-1.09-1.09h-9.06c-.62,0-1.09,.5-1.09,1.09v20.67c0,.15,.03,.26,.09,.38,3.35-1.47,7.12-2.62,11.14-3v-18.05Z"/>
    <rect class="cls-3" x="106.18" y="54.06" width="11.25" height="28.73" rx="1.09" ry="1.09"/>
    <path class="cls-3" d="M100.29,66.9c0-.59-.5-1.09-1.09-1.09h-9.06c-.62,0-1.12,.5-1.12,1.09v12.11c4.06,.32,7.85,1.41,11.23,2.85,.03-.06,.03-.12,.03-.18v-14.79Z"/>
    <path class="cls-3" d="M86.36,84.2c-14.99,0-26.74,12.86-27.23,13.42-1.25,1.4-1.25,3.51,0,4.88,.5,.56,12.24,13.42,27.23,13.42s26.74-12.86,27.23-13.42c1.25-1.38,1.25-3.48,0-4.88-.5-.56-12.24-13.42-27.23-13.42Zm0,26.61c-5.94,0-10.75-4.8-10.75-10.73s4.82-10.76,10.75-10.76,10.76,4.82,10.76,10.76-4.82,10.73-10.76,10.73Z"/>
    <path class="cls-3" d="M86.36,93.88c-.3,0-.58,.02-.86,.09,.17,.41,.28,.88,.28,1.36,0,1.85-1.5,3.34-3.35,3.34-.71,0-1.38-.22-1.91-.58-.22,.62-.34,1.29-.34,2,0,3.4,2.78,6.17,6.19,6.17s6.2-2.77,6.2-6.17-2.78-6.19-6.2-6.19Z"/>
  </g>
</svg>