<?xml version="1.0" encoding="UTF-8"?>
<svg id="Layer_1" data-name="Layer 1" xmlns="http://www.w3.org/2000/svg" xmlns:xlink="http://www.w3.org/1999/xlink" viewBox="0 0 176.91 139.79">
  <defs>
    <style>
      .cls-1 {
        fill: url(#linear-gradient);
      }

      .cls-2 {
        fill: #ed1c24;
      }

      .cls-3 {
        fill: #101b4e;
      }
    </style>
    <linearGradient id="linear-gradient" x1="26.63" y1="113.07" x2="112.98" y2="26.72" gradientUnits="userSpaceOnUse">
      <stop offset="0" stop-color="#dbdfe2"/>
      <stop offset="1" stop-color="#fff"/>
    </linearGradient>
  </defs>
  <g>
    <g>
      <g>
        <circle class="cls-2" cx="69.9" cy="69.9" r="63.71"/>
        <path class="cls-2" d="M69.9,139.79C31.35,139.79,0,108.44,0,69.9S31.35,0,69.9,0s69.9,31.35,69.9,69.9-31.36,69.9-69.9,69.9Zm0-127.42c-31.72,0-57.52,25.8-57.52,57.52s25.8,57.52,57.52,57.52,57.52-25.8,57.52-57.52S101.61,12.38,69.9,12.38Z"/>
      </g>
      <polygon class="cls-3" points="176.91 103.2 168.45 94.75 156.26 106.93 144.08 94.75 135.62 103.2 147.81 115.39 135.62 127.58 144.08 136.03 156.26 123.84 168.45 136.03 176.91 127.58 164.72 115.39 176.91 103.2"/>
    </g>
    <circle class="cls-1" cx="69.8" cy="69.9" r="61.05"/>
  </g>
  <g>
    <path class="cls-3" d="M95.65,96.36l-1.95-2.41c-6.22-6.98-14.95-12.16-18.74-14.21l-1.51,2.39c-1.36,2.16-3.97,3.18-6.44,2.51l-.1-.04c-2.93-.92-4.66-3.94-3.99-6.93,.53-2.35,1.4-4.6,2.58-6.7l-2.32-.32c-1.91-.26-3.85,.1-5.54,1.03l-1.61,.87c-2.13,1.17-4.67,1.31-6.92,.38l-3.17-1.31-12.89,20.1,4.34,2.91,2.38-2.38c2.19-2.2,5.76-2.2,7.95,0h0c.83,.83,1.37,1.9,1.55,3.05,3.03-.56,5.94,1.44,6.51,4.47,.06,.35,.1,.7,.09,1.05,0,.33-.03,.65-.09,.97,1.09,.18,2.11,.68,2.92,1.44h0l.12,.11c1.29,1.3,1.87,3.16,1.55,4.96,1.15,.18,2.21,.72,3.04,1.55l.11,.12c1.86,1.96,2.06,4.97,.48,7.17l2.52,3.09c1.35,1.22,3.42,1.18,4.73-.07,1.29-1.28,1.33-3.35,.1-4.69l-1.08-1.12c-.68-.66-.69-1.74-.03-2.42,.66-.68,1.74-.69,2.42-.03,0,0,.01,.01,.02,.02l2.06,2.06c1.33,1.32,3.47,1.32,4.8,0,0,0,.05-.05,.08-.08,1.26-1.32,1.23-3.4-.06-4.69l-2.28-2.29c-.67-.65-.68-1.72-.02-2.39,0,0,.01-.01,.02-.02,.67-.66,1.75-.66,2.42,0l3.3,3.31c.64,.63,1.5,.98,2.4,.97h0c1.86,0,3.37-1.53,3.36-3.39,0-.85-.32-1.66-.9-2.28l-3.44-3.43c-.66-.67-.66-1.75,0-2.43,.67-.67,1.76-.67,2.43,0l4.19,4.2c.73,.73,1.73,1.12,2.76,1.09,.89,0,1.74-.38,2.35-1.03,.56-.63,.88-1.44,.88-2.28,0-.43-.09-.85-.24-1.25-.35-.55-.75-1.1-1.15-1.63Z"/>
    <path class="cls-3" d="M80.19,70.79l-4.85-1.63c-2.22-.74-4.67,.09-5.98,2.03l-.21,.33c-1.37,2.12-2.35,4.46-2.91,6.91-.25,1.27,.48,2.52,1.71,2.92,.99,.27,2.04-.15,2.58-1.03l2.36-3.74c.31-.5,.86-.8,1.45-.8,.26,0,.52,.06,.75,.18,.7,.34,16.95,8.4,24.68,20.3l7.22-4.12-13.12-20.56c-4.54,.99-9.27,.72-13.67-.77Z"/>
    <path class="cls-3" d="M59.45,111.62c-.58,0-1.14,.23-1.55,.64l-3.57,3.57c-.86,.86-.86,2.26,0,3.12,.88,.81,2.24,.81,3.12,0l3.57-3.57c.86-.86,.87-2.25,.01-3.11-.41-.42-.97-.65-1.56-.65h-.03Z"/>
    <path class="cls-3" d="M56.43,105.76c-.86-.84-2.23-.84-3.09,0l-4.55,4.52c-.41,.41-.64,.97-.64,1.55,0,.58,.23,1.14,.64,1.55,.87,.8,2.22,.8,3.09,0l4.53-4.53c.84-.86,.84-2.23,.01-3.09Z"/>
    <path class="cls-3" d="M52.49,100.81c-.01-1.22-1.01-2.2-2.24-2.19-.57,0-1.12,.24-1.53,.64l-5.48,5.48c-.86,.86-.86,2.26,0,3.12,.88,.83,2.25,.83,3.12,0l5.48-5.48c.42-.42,.65-.99,.64-1.58Z"/>
    <path class="cls-3" d="M45.34,94.66c-.87-.86-2.26-.86-3.12,0l-4.52,4.52c-.86,.86-.86,2.26,0,3.12,.41,.41,.97,.64,1.55,.65h0c.58,0,1.14-.23,1.55-.64l4.52-4.53c.87-.85,.88-2.25,.03-3.12Z"/>
    <path class="cls-3" d="M43.47,65.51l-6.23-3.97c-.31-.2-.67-.3-1.03-.3-.14,0-.28,.01-.42,.04-.5,.12-.93,.42-1.21,.86l-15.89,24.87c-.58,.9-.31,2.1,.59,2.69l6.23,3.97c.43,.27,.96,.36,1.46,.25,.5-.12,.94-.42,1.23-.84l15.89-24.89c.57-.9,.3-2.1-.61-2.67,0,0,0,0,0,0Zm-17.88,23.87c-1.5,0-2.72-1.22-2.72-2.72,0-1.5,1.22-2.72,2.72-2.72,1.5,0,2.72,1.22,2.72,2.72,0,0,0,0,0,0,0,1.5-1.22,2.71-2.72,2.72Z"/>
    <path class="cls-3" d="M121.17,86.99l-15.89-24.87c-.27-.43-.71-.74-1.21-.84-.14-.03-.29-.05-.43-.05-.37,0-.72,.11-1.03,.3l-6.24,3.97c-.89,.58-1.16,1.77-.59,2.67l15.9,24.89c.58,.89,1.77,1.15,2.67,.59l6.23-3.97c.91-.58,1.17-1.78,.6-2.69Zm-6.92,2.38c-1.5,0-2.72-1.21-2.73-2.72s1.21-2.72,2.72-2.73c1.5,0,2.72,1.21,2.73,2.72h0c0,1.51-1.22,2.73-2.72,2.73Z"/>
    <path class="cls-3" d="M91.79,41.77c0-12.05-9.76-21.81-21.81-21.81-12.05,0-21.81,9.76-21.81,21.81,0,12.05,9.76,21.81,21.81,21.81h0c12.05,0,21.81-9.76,21.81-21.81Zm-24.56,8.93c-.92,0-1.81-.38-2.45-1.03l-5.43-5.43c-1.29-1.41-1.2-3.6,.21-4.89,1.33-1.22,3.36-1.21,4.69,0l2.98,2.98,8.47-8.48c1.35-1.35,3.55-1.35,4.9,0,1.35,1.35,1.35,3.55,0,4.9l-10.93,10.93c-.65,.65-1.53,1.02-2.45,1.02Z"/>
  </g>
</svg>