<?xml version="1.0" encoding="UTF-8"?>
<svg id="Layer_1" data-name="Layer 1" xmlns="http://www.w3.org/2000/svg" xmlns:xlink="http://www.w3.org/1999/xlink" viewBox="0 0 176.91 139.79">
  <defs>
    <style>
      .cls-1 {
        fill: url(#linear-gradient);
      }

      .cls-2 {
        fill: #ed1c24;
      }

      .cls-3 {
        fill: #101b4e;
      }
    </style>
    <linearGradient id="linear-gradient" x1="26.63" y1="113.07" x2="112.98" y2="26.72" gradientUnits="userSpaceOnUse">
      <stop offset="0" stop-color="#dbdfe2"/>
      <stop offset="1" stop-color="#fff"/>
    </linearGradient>
  </defs>
  <g>
    <g>
      <g>
        <path class="cls-3" d="M153.3,137.5c-6.27,0-12.18-2.46-16.63-6.94-4.45-4.47-6.89-10.37-6.86-16.62,.05-12.89,10.59-23.35,23.51-23.35h.05c12.93,.02,23.45,10.56,23.44,23.48-.01,12.92-10.55,23.43-23.49,23.43h0Zm.01-42.78c-10.65,0-19.34,8.63-19.38,19.25-.02,5.14,1.99,10.01,5.66,13.69,3.68,3.69,8.55,5.72,13.71,5.72h0c10.67,0,19.36-8.66,19.37-19.31,.01-10.65-8.66-19.33-19.32-19.35h-.04Z"/>
        <path class="cls-3" d="M148.29,114.16c-2.35-2.33-4.58-4.55-6.7-6.66,1.73-1.74,3.36-3.37,4.98-5,2.07,2.08,4.3,4.34,6.61,6.67,2.43-2.43,4.65-4.66,6.78-6.79,1.68,1.67,3.32,3.3,4.98,4.96-2.11,2.1-4.37,4.34-6.73,6.68,2.38,2.37,4.61,4.59,6.76,6.72-1.64,1.64-3.28,3.27-4.97,4.96-2.08-2.13-4.28-4.39-6.55-6.72-2.39,2.4-4.63,4.65-6.79,6.81-1.75-1.75-3.39-3.38-5.04-5.03,2.17-2.15,4.41-4.37,6.67-6.61Z"/>
      </g>
      <g>
        <circle class="cls-2" cx="70" cy="69.9" r="63.71"/>
        <path class="cls-2" d="M70,139.79C31.46,139.79,.11,108.44,.11,69.9S31.46,0,70,0s69.9,31.35,69.9,69.9-31.36,69.9-69.9,69.9Zm0-127.42c-31.72,0-57.52,25.8-57.52,57.52s25.8,57.52,57.52,57.52,57.52-25.8,57.52-57.52S101.72,12.38,70,12.38Z"/>
      </g>
    </g>
    <circle class="cls-1" cx="69.8" cy="69.9" r="61.05"/>
  </g>
  <g>
    <path class="cls-3" d="M98.46,27.87h-12.59c-1.62,0-2.94,1.32-2.94,2.94s1.32,2.94,2.94,2.94h5.49l-16.97,16.97-13.53-13.52c-1.15-1.15-3.01-1.15-4.16,0l-18.43,18.43c-1.15,1.15-1.15,3.01,0,4.16,.57,.57,1.33,.86,2.08,.86s1.5-.29,2.08-.86l16.35-16.35,13.53,13.52c1.15,1.15,3.01,1.15,4.16,0l19.05-19.05v5.49c0,1.63,1.32,2.94,2.94,2.94s2.94-1.32,2.94-2.94v-12.59c0-1.63-1.32-2.94-2.94-2.94Z"/>
    <path class="cls-3" d="M38.92,68.76h9.07c.6,0,1.09,.49,1.09,1.09v11.84c0,.6-.49,1.09-1.09,1.09h-9.07c-.6,0-1.09-.49-1.09-1.09v-11.84c0-.6,.49-1.09,1.09-1.09Z"/>
    <path class="cls-3" d="M66.2,61.02c0-.59-.47-1.09-1.09-1.09h-9.06c-.62,0-1.09,.5-1.09,1.09v20.67c0,.15,.03,.26,.09,.38,3.35-1.47,7.12-2.62,11.14-3v-18.05Z"/>
    <rect class="cls-3" x="89.23" y="54.06" width="11.25" height="28.73" rx="1.09" ry="1.09"/>
    <path class="cls-3" d="M83.34,66.9c0-.59-.5-1.09-1.09-1.09h-9.06c-.62,0-1.12,.5-1.12,1.09v12.11c4.06,.32,7.85,1.41,11.23,2.85,.03-.06,.03-.12,.03-.18v-14.79Z"/>
    <path class="cls-3" d="M69.41,84.2c-14.99,0-26.74,12.86-27.23,13.42-1.25,1.4-1.25,3.51,0,4.88,.5,.56,12.24,13.42,27.23,13.42s26.74-12.86,27.23-13.42c1.25-1.38,1.25-3.48,0-4.88-.5-.56-12.24-13.42-27.23-13.42Zm0,26.61c-5.94,0-10.75-4.8-10.75-10.73s4.82-10.76,10.75-10.76,10.76,4.82,10.76,10.76-4.82,10.73-10.76,10.73Z"/>
    <path class="cls-3" d="M69.41,93.88c-.3,0-.58,.02-.86,.09,.17,.41,.28,.88,.28,1.36,0,1.85-1.5,3.34-3.35,3.34-.71,0-1.38-.22-1.91-.58-.22,.62-.34,1.29-.34,2,0,3.4,2.78,6.17,6.19,6.17s6.2-2.77,6.2-6.17-2.78-6.19-6.2-6.19Z"/>
  </g>
</svg>